<?xml version="1.0" encoding="UTF-8" standalone="no" ?>
<!DOCTYPE svg PUBLIC "-//W3C//DTD SVG 1.1//EN" "http://www.w3.org/Graphics/SVG/1.1/DTD/svg11.dtd">
<svg xmlns="http://www.w3.org/2000/svg" xmlns:xlink="http://www.w3.org/1999/xlink" version="1.1" width="340" height="340" viewBox="470 255 340 340" xml:space="preserve">
<desc>Created with Fabric.js 5.3.0</desc>
<defs>
</defs>
<g transform="matrix(1 0 0 1 640 512)" id="background-logo"  >
<rect style="stroke: none; stroke-width: 0; stroke-dasharray: none; stroke-linecap: butt; stroke-dashoffset: 0; stroke-linejoin: miter; stroke-miterlimit: 4; fill: rgb(255,255,255); fill-opacity: 0; fill-rule: nonzero; opacity: 1;"  paint-order="stroke"  x="-640" y="-512" rx="0" ry="0" width="1280" height="1024" />
</g>
<g transform="matrix(1.9211538461538462 0 0 1.9211538461538462 640 425.16550782699346)" id="logo-logo"  >
<g style=""  paint-order="stroke"   >
		<g transform="matrix(0.27445619368318463 0 0 0.27445619368318463 31.39891132262659 -42.214020687661304)"  >
<radialGradient id="SVGID_2_53633" gradientUnits="userSpaceOnUse" gradientTransform="matrix(0.9999560202708934 -0.009378567267807215 0.009378567267807215 0.9999560202708934 -66.8482405 -45.8088965)"  cx="743.7564722" cy="289.0155232" r="91.3822812" fx="743.7564722" fy="289.0155232">
<stop offset="0%" style="stop-color:rgb(46,207,255);stop-opacity: 1"/>
<stop offset="100%" style="stop-color:rgb(8,34,52);stop-opacity: 1"/>
</radialGradient>
<path style="stroke: none; stroke-width: 0; stroke-dasharray: none; stroke-linecap: butt; stroke-dashoffset: 0; stroke-linejoin: miter; stroke-miterlimit: 4; fill: url(#SVGID_2_53633); fill-rule: nonzero; opacity: 1;"  paint-order="stroke"  transform=" translate(-679.5575802224091, -236.19031503296816)" d="M 573.0924532 302.7678009 C 569.2911348 301.4917552 567.7654979 296.943265 570.0319142000001 293.6354453 C 585.9372223 270.42175230000004 648.4145253 193.3394654 790.1437818 169.2974301 C 790.1437818 169.2974301 655.0992977000001 190.69759860000002 579.9699524 300.4860802 C 578.4540043000001 302.7013749 575.6372432000001 303.6220488 573.0924649 302.7678048 L 573.0924532 302.7678009 Z" stroke-linecap="round" />
</g>
		<g transform="matrix(0.27445619368318463 0 0 0.27445619368318463 -31.39891132262659 42.214020687661275)"  >
<radialGradient id="SVGID_3_53634" gradientUnits="userSpaceOnUse" gradientTransform="matrix(-0.9999560202708934 0.009378567267807008 -0.009378567267807008 -0.9999560202708934 -9756.3782346 13721.6718212)"  cx="-10330.2399694" cy="13081.5828383" r="91.3822812" fx="-10330.2399694" fy="13081.5828383">
<stop offset="0%" style="stop-color:rgb(46,207,255);stop-opacity: 1"/>
<stop offset="100%" style="stop-color:rgb(8,34,52);stop-opacity: 1"/>
</radialGradient>
<path style="stroke: none; stroke-width: 0; stroke-dasharray: none; stroke-linecap: butt; stroke-dashoffset: 0; stroke-linejoin: miter; stroke-miterlimit: 4; fill: url(#SVGID_3_53634); fill-rule: nonzero; opacity: 1;"  paint-order="stroke"  transform=" translate(-450.7493984775909, -543.8096849670318)" d="M 557.2145255 477.2321991 C 561.0158439 478.5082448 562.5414808 483.056735 560.2750645 486.3645547 C 544.3697564 509.57824769999996 481.89245339999997 586.6605346 340.1631969 610.7025699 C 340.1631969 610.7025699 475.207681 589.3024014 550.3370262999999 479.51391979999994 C 551.8529743999999 477.2986250999999 554.6697354999999 476.3779511999999 557.2145138 477.2321951999999 L 557.2145254999999 477.23219909999995 Z" stroke-linecap="round" />
</g>
		<g transform="matrix(0.27445619368318463 0 0 0.27445619368318463 42.214020673938535 31.398911336349414)"  >
<radialGradient id="SVGID_4_53635" gradientUnits="userSpaceOnUse" gradientTransform="matrix(0.00937856726780717 0.9999560202708934 -0.9999560202708934 0.00937856726780717 2003.1553238 11894.1942577)"  cx="-11401.3049029" cy="1177.3442516" r="91.3822812" fx="-11401.3049029" fy="1177.3442516">
<stop offset="0%" style="stop-color:rgb(46,207,255);stop-opacity: 1"/>
<stop offset="100%" style="stop-color:rgb(8,34,52);stop-opacity: 1"/>
</radialGradient>
<path style="stroke: none; stroke-width: 0; stroke-dasharray: none; stroke-linecap: butt; stroke-dashoffset: 0; stroke-linejoin: miter; stroke-miterlimit: 4; fill: url(#SVGID_4_53635); fill-rule: nonzero; opacity: 1;"  paint-order="stroke"  transform=" translate(-718.963174267032, -504.4040909224091)" d="M 652.3856884 397.9389639 C 653.6617341000001 394.13764549999996 658.2102243 392.61200859999997 661.518044 394.87842489999997 C 684.7317370000001 410.783733 761.8140239 473.261036 785.8560592 614.9902925 C 785.8560592 614.9902925 764.4558907 479.94580840000003 654.6674091 404.8164631 C 652.4521144 403.300515 651.5314405 400.4837539 652.3856845 397.93897560000005 L 652.3856884 397.93896390000003 Z" stroke-linecap="round" />
</g>
		<g transform="matrix(0.27445619368318463 0 0 0.27445619368318463 -42.21402067393848 -31.398911336349357)"  >
<radialGradient id="SVGID_5_53636" gradientUnits="userSpaceOnUse" gradientTransform="matrix(-0.009378567267807046 -0.9999560202708934 0.9999560202708934 -0.009378567267807046 -11764.3253938 2204.6642635)"  cx="1814.8214056" cy="12193.25411" r="91.3822812" fx="1814.8214056" fy="12193.25411">
<stop offset="0%" style="stop-color:rgb(46,207,255);stop-opacity: 1"/>
<stop offset="100%" style="stop-color:rgb(8,34,52);stop-opacity: 1"/>
</radialGradient>
<path style="stroke: none; stroke-width: 0; stroke-dasharray: none; stroke-linecap: butt; stroke-dashoffset: 0; stroke-linejoin: miter; stroke-miterlimit: 4; fill: url(#SVGID_5_53636); fill-rule: nonzero; opacity: 1;"  paint-order="stroke"  transform=" translate(-411.3438044329682, -275.5959090775909)" d="M 477.9212903 382.0610361 C 476.6452446 385.86235450000004 472.0967544 387.38799140000003 468.7889347 385.12157510000003 C 445.57524170000005 369.216267 368.4929548 306.738964 344.45091950000005 165.00970750000002 C 344.45091950000005 165.00970750000002 365.85108800000006 300.0541916 475.6395696000001 375.18353690000004 C 477.8548643000001 376.69948500000004 478.7755382000001 379.51624610000005 477.9212942000001 382.0610244 L 477.92129030000007 382.0610361 Z" stroke-linecap="round" />
</g>
		<g transform="matrix(0.27445619368318463 0 0 0.27445619368318463 52.395258550828714 -8.9266400977248)"  >
<radialGradient id="SVGID_6_53637" gradientUnits="userSpaceOnUse" gradientTransform="matrix(0.7137073313347422 0.7004440343089807 -0.7004440343089807 0.7137073313347422 3441.0091623 5495.4809052)"  cx="-5512.7531187" cy="-1782.1446813" r="91.3822812" fx="-5512.7531187" fy="-1782.1446813">
<stop offset="0%" style="stop-color:rgb(46,207,255);stop-opacity: 1"/>
<stop offset="100%" style="stop-color:rgb(8,34,52);stop-opacity: 1"/>
</radialGradient>
<path style="stroke: none; stroke-width: 0; stroke-dasharray: none; stroke-linecap: butt; stroke-dashoffset: 0; stroke-linejoin: miter; stroke-miterlimit: 4; fill: url(#SVGID_6_53637); fill-rule: nonzero; opacity: 1;"  paint-order="stroke"  transform=" translate(-756.0592140402964, -357.4751734405047)" d="M 632.449664 333.9312157 C 630.6640265999999 330.3409771 632.8015066 326.0459207 636.7430866999999 325.3095372 C 664.4043976999999 320.1417286 763.0879301 309.81444550000003 880.3059346 393.0318777 C 880.3059346 393.0318777 769.6828598 312.6732115 638.9262105 337.18092179999996 C 636.2878234 337.67543449999994 633.6450578 336.3346984 632.4496695 333.93122669999997 L 632.449664 333.9312157 Z" stroke-linecap="round" />
</g>
		<g transform="matrix(0.27445619368318463 0 0 0.27445619368318463 -52.395258550828714 8.926640097724828)"  >
<radialGradient id="SVGID_7_53638" gradientUnits="userSpaceOnUse" gradientTransform="matrix(-0.7137073313347422 -0.7004440343089807 0.7004440343089807 -0.7137073313347422 -13145.6021784 8379.0275155)"  cx="-4073.7303785" cy="15152.7430428" r="91.3822812" fx="-4073.7303785" fy="15152.7430428">
<stop offset="0%" style="stop-color:rgb(46,207,255);stop-opacity: 1"/>
<stop offset="100%" style="stop-color:rgb(8,34,52);stop-opacity: 1"/>
</radialGradient>
<path style="stroke: none; stroke-width: 0; stroke-dasharray: none; stroke-linecap: butt; stroke-dashoffset: 0; stroke-linejoin: miter; stroke-miterlimit: 4; fill: url(#SVGID_7_53638); fill-rule: nonzero; opacity: 1;"  paint-order="stroke"  transform=" translate(-374.24776465970353, -422.5248265594953)" d="M 497.8573147 446.0687843 C 499.6429521 449.6590229 497.5054721 453.9540793 493.563892 454.6904628 C 465.902581 459.8582714 367.2190486 470.18555449999997 250.0010441 386.9681223 C 250.0010441 386.9681223 360.6241189 467.3267885 491.38076820000003 442.81907820000004 C 494.0191553 442.32456550000006 496.66192090000004 443.6653016 497.85730920000003 446.06877330000003 L 497.8573147 446.0687843 Z" stroke-linecap="round" />
</g>
		<g transform="matrix(0.27445619368318463 0 0 0.27445619368318463 8.926640111447625 52.39525856455157)"  >
<radialGradient id="SVGID_8_53639" gradientUnits="userSpaceOnUse" gradientTransform="matrix(-0.700444034308981 0.713707331334742 -0.713707331334742 -0.700444034308981 -3538.1344778 15402.0516604)"  cx="-13472.4651074" cy="7433.8538424" r="91.3822812" fx="-13472.4651074" fy="7433.8538424">
<stop offset="0%" style="stop-color:rgb(46,207,255);stop-opacity: 1"/>
<stop offset="100%" style="stop-color:rgb(8,34,52);stop-opacity: 1"/>
</radialGradient>
<path style="stroke: none; stroke-width: 0; stroke-dasharray: none; stroke-linecap: butt; stroke-dashoffset: 0; stroke-linejoin: miter; stroke-miterlimit: 4; fill: url(#SVGID_8_53639); fill-rule: nonzero; opacity: 1;"  paint-order="stroke"  transform=" translate(-597.6783159594952, -580.9057247402965)" d="M 621.2222737 457.2961747 C 624.8125123 455.5105373 629.1075687 457.6480173 629.8439522 461.5895974 C 635.0117607999999 489.2509084 645.3390439 587.9344408 562.1216117 705.1524453 C 562.1216117 705.1524453 642.4802779 594.5293704999999 617.9725676 463.7727212 C 617.4780549000001 461.1343341 618.818791 458.49156849999997 621.2222627000001 457.2961802 L 621.2222737000001 457.2961747 Z" stroke-linecap="round" />
</g>
		<g transform="matrix(0.27445619368318463 0 0 0.27445619368318463 -8.926640111447625 -52.39525856455154)"  >
<radialGradient id="SVGID_9_53640" gradientUnits="userSpaceOnUse" gradientTransform="matrix(0.7004440343089808 -0.7137073313347421 0.7137073313347421 0.7004440343089808 -6421.6810881 -1184.5596802)"  cx="3885.9816102" cy="5936.7445191" r="91.3822812" fx="3885.9816102" fy="5936.7445191">
<stop offset="0%" style="stop-color:rgb(46,207,255);stop-opacity: 1"/>
<stop offset="100%" style="stop-color:rgb(8,34,52);stop-opacity: 1"/>
</radialGradient>
<path style="stroke: none; stroke-width: 0; stroke-dasharray: none; stroke-linecap: butt; stroke-dashoffset: 0; stroke-linejoin: miter; stroke-miterlimit: 4; fill: url(#SVGID_9_53640); fill-rule: nonzero; opacity: 1;"  paint-order="stroke"  transform=" translate(-532.6286627405048, -199.09427525970352)" d="M 509.084705 322.7038253 C 505.49446639999996 324.4894627 501.19941 322.3519827 500.4630265 318.4104026 C 495.2952179 290.7490916 484.9679348 192.0655592 568.185367 74.84755469999999 C 568.185367 74.84755469999999 487.8267008 185.47062949999997 512.3344111 316.2272788 C 512.8289238 318.8656659 511.4881877 321.50843150000003 509.084716 322.7038198 L 509.08470500000004 322.7038253 Z" stroke-linecap="round" />
</g>
		<g transform="matrix(0.27445619368318463 0 0 0.27445619368318463 12.474258843317216 -51.27088512534553)"  >
<radialGradient id="SVGID_10_53641" gradientUnits="userSpaceOnUse" gradientTransform="matrix(0.9202498782270083 -0.3913312683944081 0.3913312683944081 0.9202498782270083 -3123.2014611 -1401.1274262)"  cx="2809.1538264" cy="2938.9519402" r="91.3822812" fx="2809.1538264" fy="2938.9519402">
<stop offset="0%" style="stop-color:rgb(46,207,255);stop-opacity: 1"/>
<stop offset="100%" style="stop-color:rgb(8,34,52);stop-opacity: 1"/>
</radialGradient>
<path style="stroke: none; stroke-width: 0; stroke-dasharray: none; stroke-linecap: butt; stroke-dashoffset: 0; stroke-linejoin: miter; stroke-miterlimit: 4; fill: url(#SVGID_10_53641); fill-rule: nonzero; opacity: 1;"  paint-order="stroke"  transform=" translate(-610.6043085715064, -203.1910071429122)" d="M 539.1058182 306.3698467 C 535.1055364 306.64563569999996 531.9553998 303.0272147 532.7834476 299.10386789999995 C 538.5945405 271.57051409999997 566.8179278 176.44673819999997 688.5581985 99.99735559999996 C 688.5581985 99.99735559999996 571.9828536 171.44781999999998 544.5866222 301.62990679999996 C 544.0338254 304.25670049999997 541.7838041 306.18521999999996 539.1058304999999 306.36984599999994 L 539.1058181999999 306.36984679999995 Z" stroke-linecap="round" />
</g>
		<g transform="matrix(0.27445619368318463 0 0 0.27445619368318463 -12.474258843317102 51.27088512534556)"  >
<radialGradient id="SVGID_11_53642" gradientUnits="userSpaceOnUse" gradientTransform="matrix(-0.9202498782270084 0.3913312683944079 -0.3913312683944079 -0.9202498782270084 -6806.5731265 15026.3888192)"  cx="-12395.6373236" cy="10431.6464213" r="91.3822812" fx="-12395.6373236" fy="10431.6464213">
<stop offset="0%" style="stop-color:rgb(46,207,255);stop-opacity: 1"/>
<stop offset="100%" style="stop-color:rgb(8,34,52);stop-opacity: 1"/>
</radialGradient>
<path style="stroke: none; stroke-width: 0; stroke-dasharray: none; stroke-linecap: butt; stroke-dashoffset: 0; stroke-linejoin: miter; stroke-miterlimit: 4; fill: url(#SVGID_11_53642); fill-rule: nonzero; opacity: 1;"  paint-order="stroke"  transform=" translate(-519.7026701284937, -576.8089928570878)" d="M 591.2011605 473.6301533 C 595.2014423 473.35436430000004 598.3515789 476.9727853 597.5235311 480.89613210000005 C 591.7124382000001 508.42948590000003 563.4890509 603.5532618000001 441.74878020000006 680.0026444 C 441.74878020000006 680.0026444 558.3241251000001 608.55218 585.7203565000001 478.37009320000004 C 586.2731533000001 475.74329950000003 588.5231746000001 473.81478000000004 591.2011482000001 473.63015400000006 L 591.2011605000001 473.63015320000005 Z" stroke-linecap="round" />
</g>
		<g transform="matrix(0.27445619368318463 0 0 0.27445619368318463 51.27088511162276 12.474258857039956)"  >
<radialGradient id="SVGID_12_53643" gradientUnits="userSpaceOnUse" gradientTransform="matrix(0.39133126839440807 0.9202498782270084 -0.9202498782270084 0.39133126839440807 3358.4738536 8837.8410371)"  cx="-8751.3684859" cy="-888.0531027" r="91.3822812" fx="-8751.3684859" fy="-888.0531027">
<stop offset="0%" style="stop-color:rgb(46,207,255);stop-opacity: 1"/>
<stop offset="100%" style="stop-color:rgb(8,34,52);stop-opacity: 1"/>
</radialGradient>
<path style="stroke: none; stroke-width: 0; stroke-dasharray: none; stroke-linecap: butt; stroke-dashoffset: 0; stroke-linejoin: miter; stroke-miterlimit: 4; fill: url(#SVGID_12_53643); fill-rule: nonzero; opacity: 1;"  paint-order="stroke"  transform=" translate(-751.9624821570878, -435.45081927150636)" d="M 648.7836426 363.9523289 C 648.5078536 359.9520471 652.1262746 356.8019105 656.0496214 357.6299583 C 683.5829752 363.4410512 778.7067511 391.6644385 855.1561336999999 513.4047092 C 855.1561336999999 513.4047092 783.7056693 396.82936429999995 653.5235825 369.4331328999999 C 650.8967888 368.8803360999999 648.9682693 366.6303147999999 648.7836433 363.9523411999999 L 648.7836425 363.95232889999994 Z" stroke-linecap="round" />
</g>
		<g transform="matrix(0.27445619368318463 0 0 0.27445619368318463 -51.270885111622704 -12.474258857039956)"  >
<radialGradient id="SVGID_13_53644" gradientUnits="userSpaceOnUse" gradientTransform="matrix(-0.39133126839440796 -0.9202498782270084 0.9202498782270084 -0.39133126839440796 -13069.0423918 5154.4693717)"  cx="-835.1150113" cy="14258.6514642" r="91.3822812" fx="-835.1150113" fy="14258.6514642">
<stop offset="0%" style="stop-color:rgb(46,207,255);stop-opacity: 1"/>
<stop offset="100%" style="stop-color:rgb(8,34,52);stop-opacity: 1"/>
</radialGradient>
<path style="stroke: none; stroke-width: 0; stroke-dasharray: none; stroke-linecap: butt; stroke-dashoffset: 0; stroke-linejoin: miter; stroke-miterlimit: 4; fill: url(#SVGID_13_53644); fill-rule: nonzero; opacity: 1;"  paint-order="stroke"  transform=" translate(-378.34449654291217, -344.54918072849364)" d="M 481.5233361 416.0476711 C 481.79912509999997 420.0479529 478.1807041 423.1980895 474.25735729999997 422.3700417 C 446.7240035 416.5589488 351.6002276 388.3355615 275.150845 266.59529080000004 C 275.150845 266.59529080000004 346.6013094 383.17063570000005 476.78339619999997 410.5668671000001 C 479.4101899 411.1196639000001 481.33870939999997 413.3696852000001 481.52333539999995 416.0476588000001 L 481.52333619999996 416.04767110000006 Z" stroke-linecap="round" />
</g>
		<g transform="matrix(0.27445619368318463 0 0 0.27445619368318463 45.4177430759496 -28.098427245076294)"  >
<radialGradient id="SVGID_14_53645" gradientUnits="userSpaceOnUse" gradientTransform="matrix(0.927427922852431 0.3740019357083934 -0.3740019357083934 0.927427922852431 2238.1959973 2375.9578942)"  cx="-2178.5086335" cy="-1368.8131462" r="91.3822812" fx="-2178.5086335" fy="-1368.8131462">
<stop offset="0%" style="stop-color:rgb(46,207,255);stop-opacity: 1"/>
<stop offset="100%" style="stop-color:rgb(8,34,52);stop-opacity: 1"/>
</radialGradient>
<path style="stroke: none; stroke-width: 0; stroke-dasharray: none; stroke-linecap: butt; stroke-dashoffset: 0; stroke-linejoin: miter; stroke-miterlimit: 4; fill: url(#SVGID_14_53645); fill-rule: nonzero; opacity: 1;"  paint-order="stroke"  transform=" translate(-730.6361569715477, -287.62144964558024)" d="M 605.8704529 312.4460666 C 602.8468142 309.8124525 603.1779413 305.0263596 606.5376847 302.8376526 C 630.115769 287.4776946 717.3353847 240.17197620000002 857.4766324 272.1974702 C 857.4766324 272.1974702 724.5223076 240.2893612 613.0976102 312.9699365 C 610.8493002 314.4364737 607.8946255999999 314.20913770000004 605.8704620999999 312.4460747 L 605.8704528 312.4460666 Z" stroke-linecap="round" />
</g>
		<g transform="matrix(0.27445619368318463 0 0 0.27445619368318463 -45.417743075949545 28.098427245076323)"  >
<radialGradient id="SVGID_15_53646" gradientUnits="userSpaceOnUse" gradientTransform="matrix(-0.927427922852431 -0.37400193570839335 0.37400193570839335 -0.927427922852431 -11982.3492199 11387.4289474)"  cx="-7407.9748637" cy="14739.4115077" r="91.3822812" fx="-7407.9748637" fy="14739.4115077">
<stop offset="0%" style="stop-color:rgb(46,207,255);stop-opacity: 1"/>
<stop offset="100%" style="stop-color:rgb(8,34,52);stop-opacity: 1"/>
</radialGradient>
<path style="stroke: none; stroke-width: 0; stroke-dasharray: none; stroke-linecap: butt; stroke-dashoffset: 0; stroke-linejoin: miter; stroke-miterlimit: 4; fill: url(#SVGID_15_53646); fill-rule: nonzero; opacity: 1;"  paint-order="stroke"  transform=" translate(-399.67082172845227, -492.3785503544198)" d="M 524.4365258 467.5539334 C 527.4601645 470.1875475 527.1290374 474.9736404 523.7692940000001 477.1623474 C 500.19120970000006 492.5223054 412.97159400000004 539.8280238 272.8303463000001 507.8025298 C 272.8303463000001 507.8025298 405.7846711000001 539.7106388 517.2093685000001 467.0300635 C 519.4576785 465.5635263 522.4123531000001 465.79086229999996 524.4365166000001 467.5539253 L 524.4365259000001 467.5539334 Z" stroke-linecap="round" />
</g>
		<g transform="matrix(0.27445619368318463 0 0 0.27445619368318463 28.098427231353526 45.4177430896724)"  >
<radialGradient id="SVGID_16_53647" gradientUnits="userSpaceOnUse" gradientTransform="matrix(-0.3740019357083934 0.927427922852431 -0.927427922852431 -0.3740019357083934 -418.6114668 14199.2384954)"  cx="-13059.1335722" cy="4099.6093572" r="91.3822812" fx="-13059.1335722" fy="4099.6093572">
<stop offset="0%" style="stop-color:rgb(46,207,255);stop-opacity: 1"/>
<stop offset="100%" style="stop-color:rgb(8,34,52);stop-opacity: 1"/>
</radialGradient>
<path style="stroke: none; stroke-width: 0; stroke-dasharray: none; stroke-linecap: butt; stroke-dashoffset: 0; stroke-linejoin: miter; stroke-miterlimit: 4; fill: url(#SVGID_16_53647); fill-rule: nonzero; opacity: 1;"  paint-order="stroke"  transform=" translate(-667.5320396544198, -555.4826676715477)" d="M 642.7074227 430.7169636 C 645.3410368000001 427.6933249 650.1271297000001 428.024452 652.3158367000001 431.3841954 C 667.6757947000001 454.9622797 714.9815131000001 542.1818954 682.9560191 682.3231431 C 682.9560191 682.3231431 714.8641281 549.3688183 642.1835528 437.94412090000003 C 640.7170156000001 435.6958109 640.9443516 432.74113630000005 642.7074146 430.7169728 L 642.7074226999999 430.7169635 Z" stroke-linecap="round" />
</g>
		<g transform="matrix(0.27445619368318463 0 0 0.27445619368318463 -28.098427231353526 -45.4177430896724)"  >
<radialGradient id="SVGID_17_53648" gradientUnits="userSpaceOnUse" gradientTransform="matrix(0.3740019357083935 -0.927427922852431 0.927427922852431 0.3740019357083935 -9430.0825201 -21.3067218)"  cx="3472.650075" cy="9270.9890043" r="91.3822812" fx="3472.650075" fy="9270.9890043">
<stop offset="0%" style="stop-color:rgb(46,207,255);stop-opacity: 1"/>
<stop offset="100%" style="stop-color:rgb(8,34,52);stop-opacity: 1"/>
</radialGradient>
<path style="stroke: none; stroke-width: 0; stroke-dasharray: none; stroke-linecap: butt; stroke-dashoffset: 0; stroke-linejoin: miter; stroke-miterlimit: 4; fill: url(#SVGID_17_53648); fill-rule: nonzero; opacity: 1;"  paint-order="stroke"  transform=" translate(-462.77493904558014, -224.5173323284522)" d="M 487.599556 349.2830364 C 484.9659419 352.3066751 480.179849 351.975548 477.991142 348.6158046 C 462.631184 325.0377203 415.32546560000003 237.81810459999997 447.3509596 97.67685689999999 C 447.3509596 97.67685689999999 415.4428506 230.63118169999998 488.12342590000003 342.05587909999997 C 489.58996310000003 344.3041891 489.36262710000005 347.25886369999995 487.5995641 349.2830272 L 487.599556 349.2830365 Z" stroke-linecap="round" />
</g>
		<g transform="matrix(0.27445619368318463 0 0 0.27445619368318463 -38.5755715353547 -35.762581108630485)"  >
<radialGradient id="SVGID_18_53649" gradientUnits="userSpaceOnUse" gradientTransform="matrix(-0.9855203183109815 0.16955737140042507 0.16955737140042507 0.9855203183109815 -11109.7723857 949.4061828)"  cx="-11484.8583069" cy="1275.5620969" r="91.3822812" fx="-11484.8583069" fy="1275.5620969">
<stop offset="0%" style="stop-color:rgb(46,207,255);stop-opacity: 1"/>
<stop offset="100%" style="stop-color:rgb(8,34,52);stop-opacity: 1"/>
</radialGradient>
<path style="stroke: none; stroke-width: 0; stroke-dasharray: none; stroke-linecap: butt; stroke-dashoffset: 0; stroke-linejoin: miter; stroke-miterlimit: 4; fill: url(#SVGID_18_53649); fill-rule: nonzero; opacity: 1;"  paint-order="stroke"  transform=" translate(-424.6007438729422, -259.6965784276939)" d="M 541.745969 305.592822 C 545.2578881999999 303.6576896 545.9457054 298.9097176 543.1243945 296.0604162 C 523.3249339 276.06452340000004 448.0725931 211.39476570000002 304.3285128 213.0802792 C 304.3285128 213.0802792 441.0231876 209.9906564 534.5713337 304.5775137 C 536.4589335 306.4860724 539.3949172 306.88829499999997 541.7459583 305.5928279 L 541.7459691 305.59282199999996 Z" stroke-linecap="round" />
</g>
		<g transform="matrix(0.27445619368318463 0 0 0.27445619368318463 38.575571535354754 35.762581108630485)"  >
<radialGradient id="SVGID_19_53650" gradientUnits="userSpaceOnUse" gradientTransform="matrix(0.9855203183109815 -0.1695573714004248 -0.1695573714004248 -0.9855203183109815 885.1527928 12762.6312618)"  cx="1898.3748105" cy="12095.0362641" r="91.3822812" fx="1898.3748105" fy="12095.0362641">
<stop offset="0%" style="stop-color:rgb(46,207,255);stop-opacity: 1"/>
<stop offset="100%" style="stop-color:rgb(8,34,52);stop-opacity: 1"/>
</radialGradient>
<path style="stroke: none; stroke-width: 0; stroke-dasharray: none; stroke-linecap: butt; stroke-dashoffset: 0; stroke-linejoin: miter; stroke-miterlimit: 4; fill: url(#SVGID_19_53650); fill-rule: nonzero; opacity: 1;"  paint-order="stroke"  transform=" translate(-705.7062348270578, -520.303421572306)" d="M 588.5610097 474.407178 C 585.0490905 476.3423104 584.3612733 481.0902824 587.1825842 483.9395838 C 606.9820447999999 503.93547659999996 682.2343856 568.6052343 825.9784659 566.9197207999999 C 825.9784659 566.9197207999999 689.2837910999999 570.0093436 595.735645 475.42248629999995 C 593.8480452 473.51392759999993 590.9120614999999 473.111705 588.5610204 474.40717209999997 L 588.5610095999999 474.407178 Z" stroke-linecap="round" />
</g>
		<g transform="matrix(0.27445619368318463 0 0 0.27445619368318463 -35.76258109490766 38.57557154907758)"  >
<radialGradient id="SVGID_20_53651" gradientUnits="userSpaceOnUse" gradientTransform="matrix(0.1695573714004248 0.9855203183109815 0.9855203183109815 -0.1695573714004248 -11011.6363153 13067.1188131)"  cx="-10414.7583292" cy="13405.9590306" r="91.3822812" fx="-10414.7583292" fy="13405.9590306">
<stop offset="0%" style="stop-color:rgb(46,207,255);stop-opacity: 1"/>
<stop offset="100%" style="stop-color:rgb(8,34,52);stop-opacity: 1"/>
</radialGradient>
<path style="stroke: none; stroke-width: 0; stroke-dasharray: none; stroke-linecap: butt; stroke-dashoffset: 0; stroke-linejoin: miter; stroke-miterlimit: 4; fill: url(#SVGID_20_53651); fill-rule: nonzero; opacity: 1;"  paint-order="stroke"  transform=" translate(-434.850067827694, -530.5527455270578)" d="M 480.7463114 413.4075204 C 478.81117900000004 409.8956012 474.06320700000003 409.207784 471.21390560000003 412.0290949 C 451.21801280000005 431.8285555 386.5482551 507.0808963 388.2337686 650.8249766 C 388.2337686 650.8249766 385.14414580000005 514.1303018 479.7310031 420.58215570000004 C 481.6395618 418.69455590000007 482.0417844 415.75857220000006 480.7463173 413.4075311 L 480.74631139999997 413.40752030000004 Z" stroke-linecap="round" />
</g>
		<g transform="matrix(0.27445619368318463 0 0 0.27445619368318463 35.762581094907716 -38.57557154907752)"  >
<radialGradient id="SVGID_21_53652" gradientUnits="userSpaceOnUse" gradientTransform="matrix(-0.1695573714004249 -0.9855203183109815 -0.9855203183109815 0.1695573714004249 801.588764 1072.1936343)"  cx="828.274832" cy="-35.3606691" r="91.3822812" fx="828.274832" fy="-35.3606691">
<stop offset="0%" style="stop-color:rgb(46,207,255);stop-opacity: 1"/>
<stop offset="100%" style="stop-color:rgb(8,34,52);stop-opacity: 1"/>
</radialGradient>
<path style="stroke: none; stroke-width: 0; stroke-dasharray: none; stroke-linecap: butt; stroke-dashoffset: 0; stroke-linejoin: miter; stroke-miterlimit: 4; fill: url(#SVGID_21_53652); fill-rule: nonzero; opacity: 1;"  paint-order="stroke"  transform=" translate(-695.4569108723061, -249.44725447294218)" d="M 649.5606673 366.5924796 C 651.4957997 370.1043988 656.2437717 370.792216 659.0930731 367.9709051 C 679.0889659 348.1714445 743.7587235999999 272.9191037 742.0732101 129.1750234 C 742.0732101 129.1750234 745.1628329 265.8696982 650.5759756 359.41784429999996 C 648.6674169 361.30544409999993 648.2651943 364.24142779999994 649.5606614 366.5924689 L 649.5606673 366.59247969999996 Z" stroke-linecap="round" />
</g>
		<g transform="matrix(0.27445619368318463 0 0 0.27445619368318463 -52.90505403199853 1.1636591741265363)"  >
</g>
		<g transform="matrix(0.27445619368318463 0 0 0.27445619368318463 52.90505403199859 -1.1636591741265079)"  >
<radialGradient id="SVGID_23_53653" gradientUnits="userSpaceOnUse" gradientTransform="matrix(0.5769729329574136 -0.8167632671922262 -0.8167632671922262 -0.5769729329574136 3264.5396863 6900.1057713)"  cx="3875.6122843" cy="5808.212836" r="91.3822812" fx="3875.6122843" fy="5808.212836">
<stop offset="0%" style="stop-color:rgb(46,207,255);stop-opacity: 1"/>
<stop offset="100%" style="stop-color:rgb(8,34,52);stop-opacity: 1"/>
</radialGradient>
<path style="stroke: none; stroke-width: 0; stroke-dasharray: none; stroke-linecap: butt; stroke-dashoffset: 0; stroke-linejoin: miter; stroke-miterlimit: 4; fill: url(#SVGID_23_53653); fill-rule: nonzero; opacity: 1;"  paint-order="stroke"  transform=" translate(-757.9166889047855, -385.76012784222394)" d="M 641.3899937 433.1332715 C 640.2750371 436.98491859999996 643.1460001 440.82860209999996 647.1557285 440.8483943 C 675.2952928 440.9872928 774.2351574 433.50427659999997 874.6857333 330.6700246 C 874.6857333 330.6700246 780.212695 429.5124494 647.1811583000001 428.7779695 C 644.4968689000001 428.7631493 642.1364006000001 430.5547889 641.3899970000001 433.1332596 L 641.3899936000001 433.13327139999996 Z" stroke-linecap="round" />
</g>
		<g transform="matrix(0.27445619368318463 0 0 0.27445619368318463 1.1636591604037108 52.90505401827579)"  >
<radialGradient id="SVGID_24_53654" gradientUnits="userSpaceOnUse" gradientTransform="matrix(0.8167632671922262 0.5769729329574135 0.5769729329574135 -0.8167632671922262 -4932.4553547 15527.7112361)"  cx="-4127.9349006" cy="15383.1965052" r="91.3822812" fx="-4127.9349006" fy="15383.1965052">
<stop offset="0%" style="stop-color:rgb(46,207,255);stop-opacity: 1"/>
<stop offset="100%" style="stop-color:rgb(8,34,52);stop-opacity: 1"/>
</radialGradient>
<path style="stroke: none; stroke-width: 0; stroke-dasharray: none; stroke-linecap: butt; stroke-dashoffset: 0; stroke-linejoin: miter; stroke-miterlimit: 4; fill: url(#SVGID_24_53654); fill-rule: nonzero; opacity: 1;"  paint-order="stroke"  transform=" translate(-569.393361457776, -582.7631995047855)" d="M 522.0202178 466.2365043 C 518.1685706999999 465.12154769999995 514.3248871999999 467.99251069999997 514.3050949999999 472.0022391 C 514.1661965 500.1418034 521.6492126999999 599.081668 624.4834646999999 699.5322439 C 624.4834646999999 699.5322439 525.6410398999999 605.0592056 526.3755197999999 472.02766890000004 C 526.3903399999999 469.3433795 524.5987003999999 466.98291120000005 522.0202296999998 466.23650760000004 L 522.0202178999998 466.2365042 Z" stroke-linecap="round" />
</g>
		<g transform="matrix(0.27445619368318463 0 0 0.27445619368318463 -1.1636591604037108 -52.905054018275735)"  >
<radialGradient id="SVGID_25_53655" gradientUnits="userSpaceOnUse" gradientTransform="matrix(-0.8167632671922262 -0.5769729329574135 -0.5769729329574135 0.8167632671922262 -5060.9367268 -1307.1932589)"  cx="-5458.5485966" cy="-2012.5981437" r="91.3822812" fx="-5458.5485966" fy="-2012.5981437">
<stop offset="0%" style="stop-color:rgb(46,207,255);stop-opacity: 1"/>
<stop offset="100%" style="stop-color:rgb(8,34,52);stop-opacity: 1"/>
</radialGradient>
<path style="stroke: none; stroke-width: 0; stroke-dasharray: none; stroke-linecap: butt; stroke-dashoffset: 0; stroke-linejoin: miter; stroke-miterlimit: 4; fill: url(#SVGID_25_53655); fill-rule: nonzero; opacity: 1;"  paint-order="stroke"  transform=" translate(-560.913617242224, -197.23680049521454)" d="M 608.2867609 313.7634957 C 612.138408 314.87845230000005 615.9820915 312.00748930000003 616.0018837 307.9977609 C 616.1407822 279.8581966 608.657766 180.91833200000002 505.823514 80.4677561 C 505.823514 80.4677561 604.6659388 174.94079440000002 603.9314589 307.9723311 C 603.9166387 310.65662050000003 605.7082783000001 313.0170888 608.2867490000001 313.7634924 L 608.2867608000001 313.76349580000004 Z" stroke-linecap="round" />
</g>
		<g transform="matrix(0.27445619368318463 0 0 0.27445619368318463 -21.57453669845387 -48.05291846052515)"  >
<radialGradient id="SVGID_26_53656" gradientUnits="userSpaceOnUse" gradientTransform="matrix(-0.975388847831841 -0.22049171305351511 -0.22049171305351511 0.975388847831841 -8344.9879221 -930.5273787)"  cx="-8866.148108" cy="-829.2861491" r="91.3822812" fx="-8866.148108" fy="-829.2861491">
<stop offset="0%" style="stop-color:rgb(46,207,255);stop-opacity: 1"/>
<stop offset="100%" style="stop-color:rgb(8,34,52);stop-opacity: 1"/>
</radialGradient>
<path style="stroke: none; stroke-width: 0; stroke-dasharray: none; stroke-linecap: butt; stroke-dashoffset: 0; stroke-linejoin: miter; stroke-miterlimit: 4; fill: url(#SVGID_26_53656); fill-rule: nonzero; opacity: 1;"  paint-order="stroke"  transform=" translate(-486.54518246894565, -214.91588979771936)" d="M 575.8289889 303.0602656 C 579.8141223 302.61638969999996 582.2665528 298.4930518 580.7503818 294.78097149999996 C 570.1101622 268.7302499 525.3341097 180.18536029999996 391.8868779 126.73409369999996 C 391.8868779 126.73409369999996 519.3586377 176.19044169999995 569.5890318 299.37662889999996 C 570.6025728000001 301.86226039999997 573.1611441 303.35741799999994 575.8289767 303.06026689999993 L 575.8289889 303.06026549999996 Z" stroke-linecap="round" />
</g>
		<g transform="matrix(0.27445619368318463 0 0 0.27445619368318463 21.57453669845387 48.052918460525234)"  >
<radialGradient id="SVGID_27_53657" gradientUnits="userSpaceOnUse" gradientTransform="matrix(0.975388847831841 0.22049171305351517 0.22049171305351517 -0.975388847831841 -1783.8475759 14573.7286233)"  cx="-720.3353892" cy="14199.8845106" r="91.3822812" fx="-720.3353892" fy="14199.8845106">
<stop offset="0%" style="stop-color:rgb(46,207,255);stop-opacity: 1"/>
<stop offset="100%" style="stop-color:rgb(8,34,52);stop-opacity: 1"/>
</radialGradient>
<path style="stroke: none; stroke-width: 0; stroke-dasharray: none; stroke-linecap: butt; stroke-dashoffset: 0; stroke-linejoin: miter; stroke-miterlimit: 4; fill: url(#SVGID_27_53657); fill-rule: nonzero; opacity: 1;"  paint-order="stroke"  transform=" translate(-643.7617962310544, -565.0841102022807)" d="M 554.4779898 476.9397344 C 550.4928564 477.38361030000004 548.0404259000001 481.5069482 549.5565969 485.21902850000004 C 560.1968165000001 511.2697501 604.9728690000001 599.8146397 738.4201008 653.2659063000001 C 738.4201008 653.2659063000001 610.948341 603.8095583 560.7179469 480.6233711000001 C 559.7044059 478.1377396000001 557.1458346000001 476.6425820000001 554.4780020000001 476.9397331000001 L 554.4779898 476.9397345000001 Z" stroke-linecap="round" />
</g>
		<g transform="matrix(0.27445619368318463 0 0 0.27445619368318463 -48.05291844680232 21.574536684731072)"  >
<radialGradient id="SVGID_28_53658" gradientUnits="userSpaceOnUse" gradientTransform="matrix(-0.22049171305351517 0.975388847831841 0.975388847831841 0.22049171305351517 -12891.5698769 10302.3343495)"  cx="-12519.6065752" cy="10787.2488317" r="91.3822812" fx="-12519.6065752" fy="10787.2488317">
<stop offset="0%" style="stop-color:rgb(46,207,255);stop-opacity: 1"/>
<stop offset="100%" style="stop-color:rgb(8,34,52);stop-opacity: 1"/>
</radialGradient>
<path style="stroke: none; stroke-width: 0; stroke-dasharray: none; stroke-linecap: butt; stroke-dashoffset: 0; stroke-linejoin: miter; stroke-miterlimit: 4; fill: url(#SVGID_28_53658); fill-rule: nonzero; opacity: 1;"  paint-order="stroke"  transform=" translate(-390.0693791977194, -468.60830683105434)" d="M 478.213755 379.3245004 C 477.76987909999997 375.339367 473.6465412 372.8869365 469.9344609 374.4031075 C 443.8837393 385.0433271 355.33884969999997 429.8193796 301.8875831 563.2666114 C 301.8875831 563.2666114 351.34393109999996 435.7948516 474.53011829999997 385.5644575 C 477.0157498 384.5509165 478.51090739999995 381.9923452 478.21375629999994 379.3245126 L 478.21375489999997 379.3245004 Z" stroke-linecap="round" />
</g>
		<g transform="matrix(0.27445619368318463 0 0 0.27445619368318463 48.05291844680232 -21.574536684731044)"  >
<radialGradient id="SVGID_29_53659" gradientUnits="userSpaceOnUse" gradientTransform="matrix(0.22049171305351506 -0.9753888478318411 -0.9753888478318411 -0.22049171305351506 2612.6861251 3741.1940033)"  cx="2933.123078" cy="2583.3495298" r="91.3822812" fx="2933.123078" fy="2583.3495298">
<stop offset="0%" style="stop-color:rgb(46,207,255);stop-opacity: 1"/>
<stop offset="100%" style="stop-color:rgb(8,34,52);stop-opacity: 1"/>
</radialGradient>
<path style="stroke: none; stroke-width: 0; stroke-dasharray: none; stroke-linecap: butt; stroke-dashoffset: 0; stroke-linejoin: miter; stroke-miterlimit: 4; fill: url(#SVGID_29_53659); fill-rule: nonzero; opacity: 1;"  paint-order="stroke"  transform=" translate(-740.2375995022805, -311.39169316894566)" d="M 652.0932237 400.6754996 C 652.5370995999999 404.660633 656.6604375 407.1130635 660.3725178 405.5968925 C 686.4232393999999 394.9566729 774.968129 350.1806204 828.4193955999999 216.7333886 C 828.4193955999999 216.7333886 778.9630475999999 344.2051484 655.7768603999999 394.4355425 C 653.2912289 395.4490835 651.7960712999999 398.0076548 652.0932224 400.6754874 L 652.0932237999999 400.6754996 Z" stroke-linecap="round" />
</g>
		<g transform="matrix(0.27445619368318463 0 0 0.27445619368318463 -49.57722337921592 -21.995186507104762)"  >
<radialGradient id="SVGID_30_53660" gradientUnits="userSpaceOnUse" gradientTransform="matrix(-0.8456152540912072 0.5337928831000496 0.5337928831000496 0.8456152540912072 -12944.6807355 3744.2755311)"  cx="-13098.74051" cy="4222.3253177" r="91.3822812" fx="-13098.74051" fy="4222.3253177">
<stop offset="0%" style="stop-color:rgb(46,207,255);stop-opacity: 1"/>
<stop offset="100%" style="stop-color:rgb(8,34,52);stop-opacity: 1"/>
</radialGradient>
<path style="stroke: none; stroke-width: 0; stroke-dasharray: none; stroke-linecap: butt; stroke-dashoffset: 0; stroke-linejoin: miter; stroke-miterlimit: 4; fill: url(#SVGID_30_53660); fill-rule: nonzero; opacity: 1;"  paint-order="stroke"  transform=" translate(-384.5154694390891, -309.8590266376183)" d="M 511.2265318 320.9756061 C 513.7305789999999 317.8438236 512.549069 313.1940531 508.8521371 311.6413108 C 482.9077238 300.7444403 388.6355816 269.7951988 256.47838590000003 326.3608883 C 256.47838590000003 326.3608883 381.5854507 271.1956616 504.20949140000005 322.7831976 C 506.68378000000007 323.8241228 509.55019920000007 323.0721757 511.22652410000006 320.9756157 L 511.2265318000001 320.9756061 Z" stroke-linecap="round" />
</g>
		<g transform="matrix(0.27445619368318463 0 0 0.27445619368318463 49.57722337921592 21.995186507104762)"  >
<radialGradient id="SVGID_31_53661" gradientUnits="userSpaceOnUse" gradientTransform="matrix(0.8456152540912073 -0.5337928831000494 -0.5337928831000494 -0.8456152540912073 2657.9106518 10068.0132566)"  cx="3512.2570127" cy="9148.2730438" r="91.3822812" fx="3512.2570127" fy="9148.2730438">
<stop offset="0%" style="stop-color:rgb(46,207,255);stop-opacity: 1"/>
<stop offset="100%" style="stop-color:rgb(8,34,52);stop-opacity: 1"/>
</radialGradient>
<path style="stroke: none; stroke-width: 0; stroke-dasharray: none; stroke-linecap: butt; stroke-dashoffset: 0; stroke-linejoin: miter; stroke-miterlimit: 4; fill: url(#SVGID_31_53661); fill-rule: nonzero; opacity: 1;"  paint-order="stroke"  transform=" translate(-745.7915092609109, -470.1409733623817)" d="M 619.0804469 459.0243939 C 616.5763997 462.1561764 617.7579096999999 466.8059469 621.4548416 468.3586892 C 647.3992549 479.2555597 741.6713971 510.2048012 873.8285928 453.6391117 C 873.8285928 453.6391117 748.721528 508.8043384 626.0974873 457.2168024 C 623.6231987 456.1758772 620.7567795 456.9278243 619.0804546 459.0243843 L 619.0804469000001 459.0243939 Z" stroke-linecap="round" />
</g>
		<g transform="matrix(0.27445619368318463 0 0 0.27445619368318463 -21.995186493381937 49.57722339293878)"  >
<radialGradient id="SVGID_32_53662" gradientUnits="userSpaceOnUse" gradientTransform="matrix(0.5337928831000494 0.8456152540912073 0.8456152540912073 -0.5337928831000494 -8216.766967 14902.0271629)"  cx="-7467.9951083" cy="15019.8412337" r="91.3822812" fx="-7467.9951083" fy="15019.8412337">
<stop offset="0%" style="stop-color:rgb(46,207,255);stop-opacity: 1"/>
<stop offset="100%" style="stop-color:rgb(8,34,52);stop-opacity: 1"/>
</radialGradient>
<path style="stroke: none; stroke-width: 0; stroke-dasharray: none; stroke-linecap: butt; stroke-dashoffset: 0; stroke-linejoin: miter; stroke-miterlimit: 4; fill: url(#SVGID_32_53662); fill-rule: nonzero; opacity: 1;"  paint-order="stroke"  transform=" translate(-485.0125160376183, -570.6380199609109)" d="M 496.1290955 443.9269576 C 492.997313 441.4229104 488.34754250000003 442.6044204 486.7948002 446.30135229999996 C 475.8979297 472.24576559999997 444.9486882 566.5179078 501.5143777 698.6751035 C 501.5143777 698.6751035 446.349151 573.5680387 497.936687 450.94399799999997 C 498.9776122 448.46970939999994 498.2256651 445.60329019999995 496.1291051 443.92696529999995 L 496.1290955 443.9269575999999 Z" stroke-linecap="round" />
</g>
		<g transform="matrix(0.27445619368318463 0 0 0.27445619368318463 21.995186493381937 -49.57722339293869)"  >
<radialGradient id="SVGID_33_53663" gradientUnits="userSpaceOnUse" gradientTransform="matrix(-0.5337928831000494 -0.8456152540912072 -0.8456152540912072 0.5337928831000494 -1893.0292415 -700.5642244)"  cx="-2118.4883889" cy="-1649.2428722" r="91.3822812" fx="-2118.4883889" fy="-1649.2428722">
<stop offset="0%" style="stop-color:rgb(46,207,255);stop-opacity: 1"/>
<stop offset="100%" style="stop-color:rgb(8,34,52);stop-opacity: 1"/>
</radialGradient>
<path style="stroke: none; stroke-width: 0; stroke-dasharray: none; stroke-linecap: butt; stroke-dashoffset: 0; stroke-linejoin: miter; stroke-miterlimit: 4; fill: url(#SVGID_33_53663); fill-rule: nonzero; opacity: 1;"  paint-order="stroke"  transform=" translate(-645.2944626623816, -209.36198003908916)" d="M 634.1778832 336.0730424 C 637.3096657 338.5770896 641.9594362 337.3955796 643.5121785 333.69864770000004 C 654.409049 307.75423440000003 685.3582905 213.48209220000004 628.792601 81.32489650000005 C 628.792601 81.32489650000005 683.9578276999999 206.43196130000007 632.3702916999999 329.05600200000003 C 631.3293665 331.53029060000006 632.0813135999999 334.39670980000005 634.1778735999999 336.07303470000005 L 634.1778831999999 336.0730424000001 Z" stroke-linecap="round" />
</g>
		<g transform="matrix(0.27445619368318463 0 0 0.27445619368318463 39.045302131198184 -35.26514765321792)"  >
<radialGradient id="SVGID_34_53664" gradientUnits="userSpaceOnUse" gradientTransform="matrix(0.9832458565621103 0.18228435356179648 -0.18228435356179648 0.9832458565621103 1183.2625029 1028.8738417)"  cx="-608.3400307" cy="-668.1999336" r="91.3822812" fx="-608.3400307" fy="-668.1999336">
<stop offset="0%" style="stop-color:rgb(46,207,255);stop-opacity: 1"/>
<stop offset="100%" style="stop-color:rgb(8,34,52);stop-opacity: 1"/>
</radialGradient>
<path style="stroke: none; stroke-width: 0; stroke-dasharray: none; stroke-linecap: butt; stroke-dashoffset: 0; stroke-linejoin: miter; stroke-miterlimit: 4; fill: url(#SVGID_34_53664); fill-rule: nonzero; opacity: 1;"  paint-order="stroke"  transform=" translate(-707.417730528939, -261.5090114019221)" d="M 589.6502991 305.902497 C 586.1636915 303.922123 585.5373152 299.1656554 588.3952270999999 296.3530671 C 608.4515468999999 276.6148199 684.5336718 212.92335559999998 828.2439479 216.46710229999996 C 828.2439479 216.46710229999996 691.600641 211.61050089999998 596.8374610999999 304.9800299 C 594.9253445999999 306.8640256 591.9844062 307.22825709999995 589.6503098 305.90250319999996 L 589.6502991 305.90249709999995 Z" stroke-linecap="round" />
</g>
		<g transform="matrix(0.27445619368318463 0 0 0.27445619368318463 -39.045302131198184 35.26514765321795)"  >
<radialGradient id="SVGID_35_53665" gradientUnits="userSpaceOnUse" gradientTransform="matrix(-0.9832458565621104 -0.18228435356179623 0.18228435356179623 -0.9832458565621104 -10963.3857309 12686.0370259)"  cx="-8978.1434665" cy="14038.7982951" r="91.3822812" fx="-8978.1434665" fy="14038.7982951">
<stop offset="0%" style="stop-color:rgb(46,207,255);stop-opacity: 1"/>
<stop offset="100%" style="stop-color:rgb(8,34,52);stop-opacity: 1"/>
</radialGradient>
<path style="stroke: none; stroke-width: 0; stroke-dasharray: none; stroke-linecap: butt; stroke-dashoffset: 0; stroke-linejoin: miter; stroke-miterlimit: 4; fill: url(#SVGID_35_53665); fill-rule: nonzero; opacity: 1;"  paint-order="stroke"  transform=" translate(-422.8892481710609, -518.4909885980779)" d="M 540.6566796 474.097503 C 544.1432871999999 476.077877 544.7696635 480.8343446 541.9117516 483.6469329 C 521.8554318 503.3851801 445.7733069 567.0766444000001 302.0630308 563.5328977 C 302.0630308 563.5328977 438.70633769999995 568.3894991000001 533.4695176 475.0199701 C 535.3816341 473.1359744 538.3225725 472.77174290000005 540.6566689 474.09749680000004 L 540.6566796 474.09750290000005 Z" stroke-linecap="round" />
</g>
		<g transform="matrix(0.27445619368318463 0 0 0.27445619368318463 35.26514766694072 39.04530214492098)"  >
<radialGradient id="SVGID_36_53666" gradientUnits="userSpaceOnUse" gradientTransform="matrix(-0.18228435356179648 0.9832458565621103 -0.9832458565621103 -0.18228435356179648 928.4725856 13144.305001)"  cx="-12358.5203596" cy="2529.4407544" r="91.3822812" fx="-12358.5203596" fy="2529.4407544">
<stop offset="0%" style="stop-color:rgb(46,207,255);stop-opacity: 1"/>
<stop offset="100%" style="stop-color:rgb(8,34,52);stop-opacity: 1"/>
</radialGradient>
<path style="stroke: none; stroke-width: 0; stroke-dasharray: none; stroke-linecap: butt; stroke-dashoffset: 0; stroke-linejoin: miter; stroke-miterlimit: 4; fill: url(#SVGID_36_53666); fill-rule: nonzero; opacity: 1;"  paint-order="stroke"  transform=" translate(-693.6444779980777, -532.264241228939)" d="M 649.2509924 414.4968098 C 651.2313664 411.0102022 655.987834 410.3838259 658.8004222999999 413.2417378 C 678.5386695 433.2980576 742.2301338 509.3801825 738.6863870999999 653.0904586 C 738.6863870999999 653.0904586 743.5429885 516.4471517000001 650.1734594999999 421.6839718 C 648.2894637999999 419.77185529999997 647.9252323 416.8309169 649.2509861999999 414.4968205 L 649.2509922999999 414.4968098 Z" stroke-linecap="round" />
</g>
		<g transform="matrix(0.27445619368318463 0 0 0.27445619368318463 -35.26514766694072 -39.04530214492098)"  >
<radialGradient id="SVGID_37_53667" gradientUnits="userSpaceOnUse" gradientTransform="matrix(0.1822843535617966 -0.9832458565621103 0.9832458565621103 0.1822843535617966 -10728.6905986 997.6567672)"  cx="2772.0368624" cy="10841.1576071" r="91.3822812" fx="2772.0368624" fy="10841.1576071">
<stop offset="0%" style="stop-color:rgb(46,207,255);stop-opacity: 1"/>
<stop offset="100%" style="stop-color:rgb(8,34,52);stop-opacity: 1"/>
</radialGradient>
<path style="stroke: none; stroke-width: 0; stroke-dasharray: none; stroke-linecap: butt; stroke-dashoffset: 0; stroke-linejoin: miter; stroke-miterlimit: 4; fill: url(#SVGID_37_53667); fill-rule: nonzero; opacity: 1;"  paint-order="stroke"  transform=" translate(-436.6625007019221, -247.73575877106094)" d="M 481.0559863 365.5031902 C 479.0756123 368.9897978 474.3191447 369.6161741 471.50655639999997 366.7582622 C 451.7683092 346.7019424 388.07684489999997 270.6198175 391.62059159999995 126.9095414 C 391.62059159999995 126.9095414 386.76399019999997 263.5528483 480.13351919999997 358.3160282 C 482.0175149 360.22814470000003 482.38174639999994 363.1690831 481.05599249999995 365.5031795 L 481.05598639999994 365.5031902 Z" stroke-linecap="round" />
</g>
		<g transform="matrix(0.27445619368318463 0 0 0.27445619368318463 52.874832996158204 1.8584206308590296)"  >
<radialGradient id="SVGID_38_53668" gradientUnits="userSpaceOnUse" gradientTransform="matrix(0.5663653102408912 0.824154315256396 -0.824154315256396 0.5663653102408912 3565.0554943 7139.3581408)"  cx="-7145.6832652" cy="-1502.9216159" r="91.3822812" fx="-7145.6832652" fy="-1502.9216159">
<stop offset="0%" style="stop-color:rgb(46,207,255);stop-opacity: 1"/>
<stop offset="100%" style="stop-color:rgb(8,34,52);stop-opacity: 1"/>
</radialGradient>
<path style="stroke: none; stroke-width: 0; stroke-dasharray: none; stroke-linecap: butt; stroke-dashoffset: 0; stroke-linejoin: miter; stroke-miterlimit: 4; fill: url(#SVGID_38_53668); fill-rule: nonzero; opacity: 1;"  paint-order="stroke"  transform=" translate(-757.8065764841664, -396.77128326352965)" d="M 641.9412643 347.8559456 C 640.8761963 343.9902058 643.7966117999999 340.1839604 647.806261 340.216009 C 675.9452692 340.44092029999996 774.7801219999999 349.20244049999997 873.8928254 453.3267585 C 873.8928254 453.3267585 780.7055523 353.2712138 647.6756381 352.28575379999995 C 644.9913814 352.26586929999996 642.6542733 350.44386249999997 641.9412675 347.85595749999993 L 641.9412642 347.8559455999999 Z" stroke-linecap="round" />
</g>
		<g transform="matrix(0.27445619368318463 0 0 0.27445619368318463 -52.874832996158204 -1.8584206308590012)"  >
<radialGradient id="SVGID_39_53669" gradientUnits="userSpaceOnUse" gradientTransform="matrix(-0.566365310240891 -0.8241543152563962 0.8241543152563962 -0.566365310240891 -13266.7809774 6793.2399434)"  cx="-2440.800232" cy="14873.5199774" r="91.3822812" fx="-2440.800232" fy="14873.5199774">
<stop offset="0%" style="stop-color:rgb(46,207,255);stop-opacity: 1"/>
<stop offset="100%" style="stop-color:rgb(8,34,52);stop-opacity: 1"/>
</radialGradient>
<path style="stroke: none; stroke-width: 0; stroke-dasharray: none; stroke-linecap: butt; stroke-dashoffset: 0; stroke-linejoin: miter; stroke-miterlimit: 4; fill: url(#SVGID_39_53669); fill-rule: nonzero; opacity: 1;"  paint-order="stroke"  transform=" translate(-372.5004022158336, -383.22871673647035)" d="M 488.3657144 432.1440544 C 489.4307824 436.0097942 486.5103669 439.8160396 482.5007177 439.783991 C 454.3617095 439.55907970000004 355.5268567 430.79755950000003 256.4141533 326.6732415 C 256.4141533 326.6732415 349.60142640000004 426.7287862 482.63134060000004 427.71424620000005 C 485.31559730000004 427.73413070000004 487.65270540000006 429.55613750000003 488.3657112 432.14404250000007 L 488.3657145 432.1440544000001 Z" stroke-linecap="round" />
</g>
		<g transform="matrix(0.27445619368318463 0 0 0.27445619368318463 -1.85842064458177 52.87483300988106)"  >
<radialGradient id="SVGID_40_53670" gradientUnits="userSpaceOnUse" gradientTransform="matrix(-0.824154315256396 0.5663653102408912 -0.5663653102408912 -0.824154315256396 -5182.0117135 15526.0979925)"  cx="-13193.242042" cy="9066.783989" r="91.3822812" fx="-13193.242042" fy="9066.783989">
<stop offset="0%" style="stop-color:rgb(46,207,255);stop-opacity: 1"/>
<stop offset="100%" style="stop-color:rgb(8,34,52);stop-opacity: 1"/>
</radialGradient>
<path style="stroke: none; stroke-width: 0; stroke-dasharray: none; stroke-linecap: butt; stroke-dashoffset: 0; stroke-linejoin: miter; stroke-miterlimit: 4; fill: url(#SVGID_40_53670); fill-rule: nonzero; opacity: 1;"  paint-order="stroke"  transform=" translate(-558.3822060364704, -582.6530871841665)" d="M 607.2975437 466.787775 C 611.1632835 465.722707 614.9695289 468.6431225 614.9374803000001 472.6527717 C 614.712569 500.7917799 605.9510488000001 599.6266327000001 501.82673080000006 698.7393361 C 501.82673080000006 698.7393361 601.8822755000001 605.552063 602.8677355000001 472.52214879999997 C 602.8876200000001 469.8378921 604.7096268000001 467.50078399999995 607.2975318000001 466.7877782 L 607.2975437000001 466.7877749 Z" stroke-linecap="round" />
</g>
		<g transform="matrix(0.27445619368318463 0 0 0.27445619368318463 1.8584206445818268 -52.874833009881)"  >
<radialGradient id="SVGID_41_53671" gradientUnits="userSpaceOnUse" gradientTransform="matrix(0.824154315256396 -0.5663653102408911 0.5663653102408911 0.824154315256396 -4835.893516 -1305.7384793)"  cx="3606.7585448" cy="4303.8143725" r="91.3822812" fx="3606.7585448" fy="4303.8143725">
<stop offset="0%" style="stop-color:rgb(46,207,255);stop-opacity: 1"/>
<stop offset="100%" style="stop-color:rgb(8,34,52);stop-opacity: 1"/>
</radialGradient>
<path style="stroke: none; stroke-width: 0; stroke-dasharray: none; stroke-linecap: butt; stroke-dashoffset: 0; stroke-linejoin: miter; stroke-miterlimit: 4; fill: url(#SVGID_41_53671); fill-rule: nonzero; opacity: 1;"  paint-order="stroke"  transform=" translate(-571.9247726635297, -197.3469128158336)" d="M 523.009435 313.212225 C 519.1436952 314.277293 515.3374498000001 311.3568775 515.3694984 307.3472283 C 515.5944097 279.2082201 524.3559299 180.37336729999998 628.4802479 81.2606639 C 628.4802479 81.2606639 528.4247032 174.447937 527.4392432 307.47785120000003 C 527.4193587 310.1621079 525.5973518999999 312.49921600000005 523.0094469 313.2122218 L 523.0094349999999 313.2122251 Z" stroke-linecap="round" />
</g>
		<g transform="matrix(0.27445619368318463 0 0 0.27445619368318463 22.20461013744506 -47.7591806227731)"  >
<radialGradient id="SVGID_42_53672" gradientUnits="userSpaceOnUse" gradientTransform="matrix(0.978157924391742 -0.20786311589514647 0.20786311589514647 0.978157924391742 -1556.986453 -886.6467105)"  cx="1926.290038" cy="1537.1752409" r="91.3822812" fx="1926.290038" fy="1537.1752409">
<stop offset="0%" style="stop-color:rgb(46,207,255);stop-opacity: 1"/>
<stop offset="100%" style="stop-color:rgb(8,34,52);stop-opacity: 1"/>
</radialGradient>
<path style="stroke: none; stroke-width: 0; stroke-dasharray: none; stroke-linecap: butt; stroke-dashoffset: 0; stroke-linejoin: miter; stroke-miterlimit: 4; fill: url(#SVGID_42_53672); fill-rule: nonzero; opacity: 1;"  paint-order="stroke"  transform=" translate(-646.0575120993524, -215.9861437927563)" d="M 555.6028694 302.929515 C 551.6238077 302.434155 549.2248901 298.2794558 550.7889254 294.5872874 C 561.7650486 268.6763034 607.6820984000001 180.7176945 741.8092143 128.9961478 C 741.8092143 128.9961478 613.7087189 176.8003628 561.8899284 299.3268586 C 560.844337 301.799179 558.2666496 303.2611334 555.6028817 302.9295165 L 555.6028695 302.929515 Z" stroke-linecap="round" />
</g>
		<g transform="matrix(0.27445619368318463 0 0 0.27445619368318463 -22.204610137444945 47.7591806227731)"  >
<radialGradient id="SVGID_43_53673" gradientUnits="userSpaceOnUse" gradientTransform="matrix(-0.978157924391742 0.2078631158951465 -0.2078631158951465 -0.978157924391742 -8318.022926 14531.4888003)"  cx="-11512.7735352" cy="11833.4231206" r="91.3822812" fx="-11512.7735352" fy="11833.4231206">
<stop offset="0%" style="stop-color:rgb(46,207,255);stop-opacity: 1"/>
<stop offset="100%" style="stop-color:rgb(8,34,52);stop-opacity: 1"/>
</radialGradient>
<path style="stroke: none; stroke-width: 0; stroke-dasharray: none; stroke-linecap: butt; stroke-dashoffset: 0; stroke-linejoin: miter; stroke-miterlimit: 4; fill: url(#SVGID_43_53673); fill-rule: nonzero; opacity: 1;"  paint-order="stroke"  transform=" translate(-484.2494666006478, -564.0138562072436)" d="M 574.7041093 477.070485 C 578.683171 477.565845 581.0820886 481.7205442 579.5180533 485.4127126 C 568.5419301000001 511.3236966 522.6248803 599.2823055 388.49776440000005 651.0038522 C 388.49776440000005 651.0038522 516.5982598 603.1996372 568.4170503 480.67314139999996 C 569.4626417000001 478.20082099999996 572.0403291 476.73886659999994 574.704097 477.07048349999997 L 574.7041092000001 477.07048499999996 Z" stroke-linecap="round" />
</g>
		<g transform="matrix(0.27445619368318463 0 0 0.27445619368318463 47.7591806364959 22.204610151167827)"  >
<radialGradient id="SVGID_44_53674" gradientUnits="userSpaceOnUse" gradientTransform="matrix(0.20786311589514644 0.978157924391742 -0.978157924391742 0.20786311589514644 2843.9931379 10404.0560452)"  cx="-10153.1451852" cy="-5.1893143" r="91.3822812" fx="-10153.1451852" fy="-5.1893143">
<stop offset="0%" style="stop-color:rgb(46,207,255);stop-opacity: 1"/>
<stop offset="100%" style="stop-color:rgb(8,34,52);stop-opacity: 1"/>
</radialGradient>
<path style="stroke: none; stroke-width: 0; stroke-dasharray: none; stroke-linecap: butt; stroke-dashoffset: 0; stroke-linejoin: miter; stroke-miterlimit: 4; fill: url(#SVGID_44_53674); fill-rule: nonzero; opacity: 1;"  paint-order="stroke"  transform=" translate(-739.1673456072435, -470.9040227993522)" d="M 652.2239744 380.4493801 C 652.7193344 376.4703184 656.8740336 374.0714008 660.566202 375.6354361 C 686.477186 386.6115593 774.4357949 432.5286091 826.1573416 566.655725 C 826.1573416 566.655725 778.3531266 438.55522959999996 655.8266308 386.7364391 C 653.3543104 385.6908477 651.892356 383.1131603 652.2239728999999 380.44939239999997 L 652.2239744 380.44938019999995 Z" stroke-linecap="round" />
</g>
		<g transform="matrix(0.27445619368318463 0 0 0.27445619368318463 -47.75918063649584 -22.204610151167827)"  >
<radialGradient id="SVGID_45_53675" gradientUnits="userSpaceOnUse" gradientTransform="matrix(-0.20786311589514633 -0.9781579243917421 0.9781579243917421 -0.20786311589514633 -12574.1423729 3643.0195722)"  cx="566.661688" cy="13375.7876758" r="91.3822812" fx="566.661688" fy="13375.7876758">
<stop offset="0%" style="stop-color:rgb(46,207,255);stop-opacity: 1"/>
<stop offset="100%" style="stop-color:rgb(8,34,52);stop-opacity: 1"/>
</radialGradient>
<path style="stroke: none; stroke-width: 0; stroke-dasharray: none; stroke-linecap: butt; stroke-dashoffset: 0; stroke-linejoin: miter; stroke-miterlimit: 4; fill: url(#SVGID_45_53675); fill-rule: nonzero; opacity: 1;"  paint-order="stroke"  transform=" translate(-391.1396330927564, -309.0959772006477)" d="M 478.0830043 399.5506199 C 477.5876443 403.5296816 473.43294510000004 405.9285992 469.7407767 404.3645639 C 443.82979270000004 393.3884407 355.87118380000004 347.4713909 304.14963710000006 213.344275 C 304.14963710000006 213.344275 351.95385210000006 341.44477040000004 474.4803479000001 393.2635609 C 476.9526683000001 394.3091523 478.4146227000001 396.8868397 478.0830058000001 399.55060760000003 L 478.0830043000001 399.55061980000005 Z" stroke-linecap="round" />
</g>
		<g transform="matrix(0.27445619368318463 0 0 0.27445619368318463 49.81504536775117 -21.1699673190395)"  >
<radialGradient id="SVGID_46_53676" gradientUnits="userSpaceOnUse" gradientTransform="matrix(0.8386435202167823 0.5446806826007357 -0.5446806826007357 0.8386435202167823 2981.8844475 3847.23195)"  cx="-3793.993415" cy="-1735.7399843" r="91.3822812" fx="-3793.993415" fy="-1735.7399843">
<stop offset="0%" style="stop-color:rgb(46,207,255);stop-opacity: 1"/>
<stop offset="100%" style="stop-color:rgb(8,34,52);stop-opacity: 1"/>
</radialGradient>
<path style="stroke: none; stroke-width: 0; stroke-dasharray: none; stroke-linecap: butt; stroke-dashoffset: 0; stroke-linejoin: miter; stroke-miterlimit: 4; fill: url(#SVGID_46_53676); fill-rule: nonzero; opacity: 1;"  paint-order="stroke"  transform=" translate(-746.6580300172607, -312.86576945143815)" d="M 619.9683116 321.6785615 C 617.5049625 318.5146675 618.7464876 313.8805607 622.4631849 312.3757434 C 648.5463085 301.81520209999996 743.2106946 272.0873306 874.6255441999999 330.3568673 C 874.6255441999999 330.3568673 750.2421305999999 273.5788229 626.9613963999999 323.5767208 C 624.4738570999999 324.58557049999996 621.6173989999999 323.7966282 619.9683191999999 321.6785713 L 619.9683115999999 321.67856159999997 Z" stroke-linecap="round" />
</g>
		<g transform="matrix(0.27445619368318463 0 0 0.27445619368318463 -49.81504536775111 21.1699673190395)"  >
<radialGradient id="SVGID_47_53677" gradientUnits="userSpaceOnUse" gradientTransform="matrix(-0.8386435202167825 -0.5446806826007355 0.5446806826007355 -0.8386435202167825 -12701.1584633 9968.7253854)"  cx="-5792.4900822" cy="15106.3383458" r="91.3822812" fx="-5792.4900822" fy="15106.3383458">
<stop offset="0%" style="stop-color:rgb(46,207,255);stop-opacity: 1"/>
<stop offset="100%" style="stop-color:rgb(8,34,52);stop-opacity: 1"/>
</radialGradient>
<path style="stroke: none; stroke-width: 0; stroke-dasharray: none; stroke-linecap: butt; stroke-dashoffset: 0; stroke-linejoin: miter; stroke-miterlimit: 4; fill: url(#SVGID_47_53677); fill-rule: nonzero; opacity: 1;"  paint-order="stroke"  transform=" translate(-383.6489486827394, -467.13423054856185)" d="M 510.3386671 458.3214385 C 512.8020162 461.4853325 511.56049110000004 466.1194393 507.8437938 467.6242566 C 481.7606702 478.18479790000004 387.09628410000005 507.9126694 255.68143450000002 449.6431327 C 255.68143450000002 449.6431327 380.0648481 506.4211771 503.34558230000005 456.4232792 C 505.8331216 455.41442950000004 508.6895797 456.2033718 510.33865950000006 458.3214287 L 510.33866710000007 458.32143840000003 Z" stroke-linecap="round" />
</g>
		<g transform="matrix(0.27445619368318463 0 0 0.27445619368318463 21.169967332762326 49.815045381473965)"  >
<radialGradient id="SVGID_48_53678" gradientUnits="userSpaceOnUse" gradientTransform="matrix(-0.5446806826007358 0.8386435202167823 -0.8386435202167823 -0.5446806826007358 -1889.8855227 14942.9269456)"  cx="-13426.0604104" cy="5715.0941387" r="91.3822812" fx="-13426.0604104" fy="5715.0941387">
<stop offset="0%" style="stop-color:rgb(46,207,255);stop-opacity: 1"/>
<stop offset="100%" style="stop-color:rgb(8,34,52);stop-opacity: 1"/>
</radialGradient>
<path style="stroke: none; stroke-width: 0; stroke-dasharray: none; stroke-linecap: butt; stroke-dashoffset: 0; stroke-linejoin: miter; stroke-miterlimit: 4; fill: url(#SVGID_48_53678); fill-rule: nonzero; opacity: 1;"  paint-order="stroke"  transform=" translate(-642.2877199485617, -571.5045407172606)" d="M 633.4749279 444.8148223 C 636.6388219 442.3514732 641.2729287 443.5929983 642.777746 447.3096956 C 653.3382872999999 473.3928192 683.0661588 568.0572053 624.7966220999999 699.4720549 C 624.7966220999999 699.4720549 681.5746664999999 575.0886413 631.5767685999999 451.80790709999997 C 630.5679188999999 449.3203678 631.3568611999999 446.4639097 633.4749181 444.81482989999995 L 633.4749277999999 444.81482229999995 Z" stroke-linecap="round" />
</g>
		<g transform="matrix(0.27445619368318463 0 0 0.27445619368318463 -21.169967332762326 -49.81504538147394)"  >
<radialGradient id="SVGID_49_53679" gradientUnits="userSpaceOnUse" gradientTransform="matrix(0.5446806826007358 -0.8386435202167823 0.8386435202167823 0.5446806826007358 -8011.378958 -740.1159651)"  cx="3839.5769132" cy="7655.5042228" r="91.3822812" fx="3839.5769132" fy="7655.5042228">
<stop offset="0%" style="stop-color:rgb(46,207,255);stop-opacity: 1"/>
<stop offset="100%" style="stop-color:rgb(8,34,52);stop-opacity: 1"/>
</radialGradient>
<path style="stroke: none; stroke-width: 0; stroke-dasharray: none; stroke-linecap: butt; stroke-dashoffset: 0; stroke-linejoin: miter; stroke-miterlimit: 4; fill: url(#SVGID_49_53679); fill-rule: nonzero; opacity: 1;"  paint-order="stroke"  transform=" translate(-488.0192587514381, -208.49545928273938)" d="M 496.8320508 335.1851777 C 493.66815679999996 337.6485268 489.03405 336.4070017 487.52923269999997 332.6903044 C 476.96869139999995 306.6071808 447.24081989999996 211.9427947 505.51035659999997 80.52794510000001 C 505.51035659999997 80.52794510000001 448.73231219999997 204.9113587 498.73021009999997 328.19209290000003 C 499.73905979999995 330.6796322 498.9501175 333.5360903 496.8320606 335.18517010000005 L 496.83205089999996 335.18517770000005 Z" stroke-linecap="round" />
</g>
		<g transform="matrix(0.27445619368318463 0 0 0.27445619368318463 -30.66825202515912 -42.751541722815944)"  >
<radialGradient id="SVGID_50_53680" gradientUnits="userSpaceOnUse" gradientTransform="matrix(-0.9996555480887205 -0.026244717095823385 -0.026244717095823385 0.9996555480887205 -9817.8313155 -128.1472345)"  cx="-10277.1371928" cy="92.7687778" r="91.3822812" fx="-10277.1371928" fy="92.7687778">
<stop offset="0%" style="stop-color:rgb(46,207,255);stop-opacity: 1"/>
<stop offset="100%" style="stop-color:rgb(8,34,52);stop-opacity: 1"/>
</radialGradient>
<path style="stroke: none; stroke-width: 0; stroke-dasharray: none; stroke-linecap: butt; stroke-dashoffset: 0; stroke-linejoin: miter; stroke-miterlimit: 4; fill: url(#SVGID_50_53680); fill-rule: nonzero; opacity: 1;"  paint-order="stroke"  transform=" translate(-453.4116058326591, -234.23182020746924)" d="M 558.6871075 302.646296 C 562.5094096 301.4345533 564.1115545 296.9124451 561.9012577 293.5668656 C 546.3897863999999 270.088181 485.221614 191.96298000000002 343.91806909999997 165.53364430000002 C 343.91806909999997 165.53364430000002 478.5823564 189.208729 551.8490754 300.24888880000003 C 553.3274396999999 302.48943970000005 556.1282699 303.45749630000006 558.6870957 302.6462998 L 558.6871074 302.64629610000003 Z" stroke-linecap="round" />
</g>
		<g transform="matrix(0.27445619368318463 0 0 0.27445619368318463 30.668252025159177 42.751541722815944)"  >
<radialGradient id="SVGID_51_53681" gradientUnits="userSpaceOnUse" gradientTransform="matrix(0.9996555480887205 0.026244717095823378 0.026244717095823378 -0.9996555480887205 -361.9129132 13800.8198476)"  cx="690.6536964" cy="13277.8295833" r="91.3822812" fx="690.6536964" fy="13277.8295833">
<stop offset="0%" style="stop-color:rgb(46,207,255);stop-opacity: 1"/>
<stop offset="100%" style="stop-color:rgb(8,34,52);stop-opacity: 1"/>
</radialGradient>
<path style="stroke: none; stroke-width: 0; stroke-dasharray: none; stroke-linecap: butt; stroke-dashoffset: 0; stroke-linejoin: miter; stroke-miterlimit: 4; fill: url(#SVGID_51_53681); fill-rule: nonzero; opacity: 1;"  paint-order="stroke"  transform=" translate(-676.8953728673409, -545.7681797925308)" d="M 571.6198712 477.353704 C 567.7975691 478.5654467 566.1954242 483.0875549 568.4057210000001 486.4331344 C 583.9171923000001 509.911819 645.0853647000001 588.03702 786.3889096 614.4663557 C 786.3889096 614.4663557 651.7246223 590.791271 578.4579033 479.75111119999997 C 576.979539 477.51056029999995 574.1787088 476.54250369999994 571.619883 477.3537002 L 571.6198713 477.35370389999997 Z" stroke-linecap="round" />
</g>
		<g transform="matrix(0.27445619368318463 0 0 0.27445619368318463 -42.75154173653874 30.668252038882002)"  >
<radialGradient id="SVGID_52_53682" gradientUnits="userSpaceOnUse" gradientTransform="matrix(-0.026244717095823423 0.9996555480887205 0.9996555480887205 0.026244717095823423 -12088.9470361 11775.2398238)"  cx="-11597.5516483" cy="12198.2379165" r="91.3822812" fx="-11597.5516483" fy="12198.2379165">
<stop offset="0%" style="stop-color:rgb(46,207,255);stop-opacity: 1"/>
<stop offset="100%" style="stop-color:rgb(8,34,52);stop-opacity: 1"/>
</radialGradient>
<path style="stroke: none; stroke-width: 0; stroke-dasharray: none; stroke-linecap: butt; stroke-dashoffset: 0; stroke-linejoin: miter; stroke-miterlimit: 4; fill: url(#SVGID_52_53682); fill-rule: nonzero; opacity: 1;"  paint-order="stroke"  transform=" translate(-409.3853095074693, -501.7418835673409)" d="M 477.7997853 396.4663819 C 476.5880426 392.6440798 472.0659344 391.0419349 468.7203549 393.2522317 C 445.2416703 408.76370299999996 367.1164693 469.93187539999997 340.68713360000004 611.2354203 C 340.68713360000004 611.2354203 364.36221830000005 476.571133 475.4023781000001 403.30441399999995 C 477.6429290000001 401.82604969999994 478.6109856000001 399.02521949999993 477.79978910000005 396.46639369999997 L 477.7997854000001 396.46638199999995 Z" stroke-linecap="round" />
</g>
		<g transform="matrix(0.27445619368318463 0 0 0.27445619368318463 42.75154173653874 -30.668252038881974)"  >
<radialGradient id="SVGID_53_53683" gradientUnits="userSpaceOnUse" gradientTransform="matrix(0.026244717095823544 -0.9996555480887205 -0.9996555480887205 -0.026244717095823544 1840.0200464 2319.3214214)"  cx="2011.0681511" cy="1172.360445" r="91.3822812" fx="2011.0681511" fy="1172.360445">
<stop offset="0%" style="stop-color:rgb(46,207,255);stop-opacity: 1"/>
<stop offset="100%" style="stop-color:rgb(8,34,52);stop-opacity: 1"/>
</radialGradient>
<path style="stroke: none; stroke-width: 0; stroke-dasharray: none; stroke-linecap: butt; stroke-dashoffset: 0; stroke-linejoin: miter; stroke-miterlimit: 4; fill: url(#SVGID_53_53683); fill-rule: nonzero; opacity: 1;"  paint-order="stroke"  transform=" translate(-720.9216691925308, -278.2581164326591)" d="M 652.5071934 383.5336181 C 653.7189361 387.3559202 658.2410443 388.9580651 661.5866238 386.7477683 C 685.0653083999999 371.23629700000004 763.1905094 310.06812460000003 789.6198451 168.7645797 C 789.6198451 168.7645797 765.9447604000001 303.428867 654.9046006 376.69558600000005 C 652.6640497 378.17395030000006 651.6959931 380.97478050000007 652.5071896 383.53360630000003 L 652.5071932999999 383.53361800000005 Z" stroke-linecap="round" />
</g>
		<g transform="matrix(0.27445619368318463 0 0 0.27445619368318463 -52.25869643486021 -9.918706672336157)"  >
<radialGradient id="SVGID_54_53684" gradientUnits="userSpaceOnUse" gradientTransform="matrix(-0.7254210343330683 0.6883053994755101 0.6883053994755101 0.7254210343330683 -13418.6613546 5353.1828279)"  cx="-13444.4691686" cy="5872.0365592" r="91.3822812" fx="-13444.4691686" fy="5872.0365592">
<stop offset="0%" style="stop-color:rgb(46,207,255);stop-opacity: 1"/>
<stop offset="100%" style="stop-color:rgb(8,34,52);stop-opacity: 1"/>
</radialGradient>
<path style="stroke: none; stroke-width: 0; stroke-dasharray: none; stroke-linecap: butt; stroke-dashoffset: 0; stroke-linejoin: miter; stroke-miterlimit: 4; fill: url(#SVGID_54_53684); fill-rule: nonzero; opacity: 1;"  paint-order="stroke"  transform=" translate(-374.7453381126319, -353.8605107094587)" d="M 498.8126704 332.804026 C 500.6586147 329.2444188 498.5938888 324.9139179 494.665291 324.1111518 C 467.0950874 318.4774812 368.5997985 306.4870513 249.99474120000002 387.7153836 C 249.99474120000002 387.7153836 361.9575848 309.2341658 492.2822287 335.9440219 C 494.91189890000004 336.4829692 497.5769043 335.18700259999997 498.8126648 332.80403689999997 L 498.81267049999997 332.80402599999996 Z" stroke-linecap="round" />
</g>
		<g transform="matrix(0.27445619368318463 0 0 0.27445619368318463 52.258696434860155 9.918706672336185)"  >
<radialGradient id="SVGID_55_53685" gradientUnits="userSpaceOnUse" gradientTransform="matrix(0.7254210343330684 -0.6883053994755098 -0.6883053994755098 -0.7254210343330684 3116.949749 8516.1058825)"  cx="3857.9856714" cy="7498.5618023" r="91.3822812" fx="3857.9856714" fy="7498.5618023">
<stop offset="0%" style="stop-color:rgb(46,207,255);stop-opacity: 1"/>
<stop offset="100%" style="stop-color:rgb(8,34,52);stop-opacity: 1"/>
</radialGradient>
<path style="stroke: none; stroke-width: 0; stroke-dasharray: none; stroke-linecap: butt; stroke-dashoffset: 0; stroke-linejoin: miter; stroke-miterlimit: 4; fill: url(#SVGID_55_53685); fill-rule: nonzero; opacity: 1;"  paint-order="stroke"  transform=" translate(-755.561640587368, -426.1394892905413)" d="M 631.4943083 447.195974 C 629.6483639999999 450.7555812 631.7130899 455.0860821 635.6416876999999 455.8888482 C 663.2118912999999 461.5225188 761.7071801999999 473.5129487 880.3122374999999 392.2846164 C 880.3122374999999 392.2846164 768.3493938999999 470.7658342 638.0247499999999 444.0559781 C 635.3950798 443.5170308 632.7300743999999 444.81299740000003 631.4943139 447.19596310000003 L 631.4943082 447.19597400000004 Z" stroke-linecap="round" />
</g>
		<g transform="matrix(0.27445619368318463 0 0 0.27445619368318463 -9.918706686058954 52.25869644858301)"  >
<radialGradient id="SVGID_56_53686" gradientUnits="userSpaceOnUse" gradientTransform="matrix(0.6883053994755098 0.7254210343330684 0.7254210343330684 -0.6883053994755098 -6607.6169737 15376.069863)"  cx="-5818.2838668" cy="15365.5698923" r="91.3822812" fx="-5818.2838668" fy="15365.5698923">
<stop offset="0%" style="stop-color:rgb(46,207,255);stop-opacity: 1"/>
<stop offset="100%" style="stop-color:rgb(8,34,52);stop-opacity: 1"/>
</radialGradient>
<path style="stroke: none; stroke-width: 0; stroke-dasharray: none; stroke-linecap: butt; stroke-dashoffset: 0; stroke-linejoin: miter; stroke-miterlimit: 4; fill: url(#SVGID_56_53686); fill-rule: nonzero; opacity: 1;"  paint-order="stroke"  transform=" translate(-529.0140000094588, -580.408151287368)" d="M 507.9575153 456.340819 C 504.3979081 454.4948747 500.0674072 456.5596006 499.2646411 460.4881984 C 493.6309705 488.058402 481.6405406 586.5536909 562.8688729 705.1587482 C 562.8688729 705.1587482 484.3876551000001 593.1959046 511.09751120000004 462.8712607 C 511.63645850000006 460.2415905 510.3404919 457.5765851 507.9575262 456.3408246 L 507.9575153 456.34081890000004 Z" stroke-linecap="round" />
</g>
		<g transform="matrix(0.27445619368318463 0 0 0.27445619368318463 9.91870668605901 -52.25869644858301)"  >
<radialGradient id="SVGID_57_53687" gradientUnits="userSpaceOnUse" gradientTransform="matrix(-0.68830539947551 -0.7254210343330684 -0.7254210343330684 0.68830539947551 -3444.6939191 -1159.5412406)"  cx="-3768.1996304" cy="-1994.9715308" r="91.3822812" fx="-3768.1996304" fy="-1994.9715308">
<stop offset="0%" style="stop-color:rgb(46,207,255);stop-opacity: 1"/>
<stop offset="100%" style="stop-color:rgb(8,34,52);stop-opacity: 1"/>
</radialGradient>
<path style="stroke: none; stroke-width: 0; stroke-dasharray: none; stroke-linecap: butt; stroke-dashoffset: 0; stroke-linejoin: miter; stroke-miterlimit: 4; fill: url(#SVGID_57_53687); fill-rule: nonzero; opacity: 1;"  paint-order="stroke"  transform=" translate(-601.2929786905413, -199.59184871263193)" d="M 622.3494634 323.659181 C 625.9090706 325.5051253 630.2395715 323.4403994 631.0423376 319.5118016 C 636.6760082 291.941598 648.6664381 193.4463091 567.4381058 74.84125180000001 C 567.4381058 74.84125180000001 645.9193236 186.8040954 619.2094675000001 317.1287393 C 618.6705202 319.7584095 619.9664868000001 322.4234149 622.3494525000001 323.6591754 L 622.3494634000001 323.65918109999996 Z" stroke-linecap="round" />
</g>
		<g transform="matrix(0.27445619368318463 0 0 0.27445619368318463 -11.593590804783787 -51.48783938140312)"  >
<radialGradient id="SVGID_58_53688" gradientUnits="userSpaceOnUse" gradientTransform="matrix(-0.9135178820208408 -0.4067985732867769 -0.4067985732867769 0.9135178820208408 -6739.0511292 -1431.717674)"  cx="-7297.7238825" cy="-1459.8698266" r="91.3822812" fx="-7297.7238825" fy="-1459.8698266">
<stop offset="0%" style="stop-color:rgb(46,207,255);stop-opacity: 1"/>
<stop offset="100%" style="stop-color:rgb(8,34,52);stop-opacity: 1"/>
</radialGradient>
<path style="stroke: none; stroke-width: 0; stroke-dasharray: none; stroke-linecap: butt; stroke-dashoffset: 0; stroke-linejoin: miter; stroke-miterlimit: 4; fill: url(#SVGID_58_53688); fill-rule: nonzero; opacity: 1;"  paint-order="stroke"  transform=" translate(-522.9114446389715, -202.40051940369938)" d="M 592.6081468 306.8211235 C 596.6032074 307.164351 599.8139321 303.599582 599.052182 299.6628256 C 593.7063548 272.03536640000004 567.0915523 176.44904610000003 446.6581682 97.95699810000002 C 446.6581682 97.95699810000002 562.0116843 171.36371590000002 587.208077 301.9894064 C 587.7164858 304.625151 589.9336563 306.5913501 592.6081345 306.82112240000004 L 592.6081468 306.82112350000006 Z" stroke-linecap="round" />
</g>
		<g transform="matrix(0.27445619368318463 0 0 0.27445619368318463 11.593590804783787 51.487839381403205)"  >
<radialGradient id="SVGID_59_53689" gradientUnits="userSpaceOnUse" gradientTransform="matrix(0.9135178820208408 0.40679857328677693 0.40679857328677693 -0.9135178820208408 -3333.3065883 15055.5932329)"  cx="-2288.7596147" cy="14830.4681881" r="91.3822812" fx="-2288.7596147" fy="14830.4681881">
<stop offset="0%" style="stop-color:rgb(46,207,255);stop-opacity: 1"/>
<stop offset="100%" style="stop-color:rgb(8,34,52);stop-opacity: 1"/>
</radialGradient>
<path style="stroke: none; stroke-width: 0; stroke-dasharray: none; stroke-linecap: butt; stroke-dashoffset: 0; stroke-linejoin: miter; stroke-miterlimit: 4; fill: url(#SVGID_59_53689); fill-rule: nonzero; opacity: 1;"  paint-order="stroke"  transform=" translate(-607.3955340610285, -577.5994805963007)" d="M 537.6988319 473.1788765 C 533.7037713 472.835649 530.4930466 476.400418 531.2547966999999 480.3371744 C 536.6006239 507.96463359999996 563.2154264 603.5509539 683.6488105 682.0430019 C 683.6488105 682.0430019 568.2952944 608.6362841 543.0989016999999 478.01059360000005 C 542.5904929 475.37484900000004 540.3733223999999 473.40864990000006 537.6988441999999 473.1788776000001 L 537.6988319 473.17887650000006 Z" stroke-linecap="round" />
</g>
		<g transform="matrix(0.27445619368318463 0 0 0.27445619368318463 -51.487839367680294 11.593590818506613)"  >
<radialGradient id="SVGID_60_53690" gradientUnits="userSpaceOnUse" gradientTransform="matrix(-0.40679857328677693 0.9135178820208408 0.9135178820208408 0.40679857328677693 -13392.5174756 8696.4596376)"  cx="-13150.1902527" cy="9218.8246062" r="91.3822812" fx="-13150.1902527" fy="9218.8246062">
<stop offset="0%" style="stop-color:rgb(46,207,255);stop-opacity: 1"/>
<stop offset="100%" style="stop-color:rgb(8,34,52);stop-opacity: 1"/>
</radialGradient>
<path style="stroke: none; stroke-width: 0; stroke-dasharray: none; stroke-linecap: butt; stroke-dashoffset: 0; stroke-linejoin: miter; stroke-miterlimit: 4; fill: url(#SVGID_60_53690); fill-rule: nonzero; opacity: 1;"  paint-order="stroke"  transform=" translate(-377.5540088036993, -432.2420447610285)" d="M 481.9746129 362.5453426 C 482.3178404 358.55028200000004 478.7530714 355.3395573 474.81631500000003 356.10130740000005 C 447.18885580000006 361.4471346 351.60253550000004 388.0619371 273.11048750000003 508.49532120000003 C 273.11048750000003 508.49532120000003 346.5172053 393.14180510000006 477.1428958 367.9454124 C 479.77864040000003 367.4370036 481.7448395 365.2198331 481.97461180000005 362.5453549 L 481.97461290000007 362.5453426 Z" stroke-linecap="round" />
</g>
		<g transform="matrix(0.27445619368318463 0 0 0.27445619368318463 51.48783936768041 -11.593590818506584)"  >
<radialGradient id="SVGID_61_53691" gradientUnits="userSpaceOnUse" gradientTransform="matrix(0.40679857328677704 -0.9135178820208407 -0.9135178820208407 -0.40679857328677704 3094.7934313 5290.7150967)"  cx="3563.7067555" cy="4151.7737553" r="91.3822812" fx="3563.7067555" fy="4151.7737553">
<stop offset="0%" style="stop-color:rgb(46,207,255);stop-opacity: 1"/>
<stop offset="100%" style="stop-color:rgb(8,34,52);stop-opacity: 1"/>
</radialGradient>
<path style="stroke: none; stroke-width: 0; stroke-dasharray: none; stroke-linecap: butt; stroke-dashoffset: 0; stroke-linejoin: miter; stroke-miterlimit: 4; fill: url(#SVGID_61_53691); fill-rule: nonzero; opacity: 1;"  paint-order="stroke"  transform=" translate(-752.7529698963008, -347.7579552389715)" d="M 648.3323658 417.4546574 C 647.9891383 421.44971799999996 651.5539073 424.6604427 655.4906637 423.89869259999995 C 683.1181229 418.5528654 778.7044432 391.9380629 857.1964912000001 271.50467879999997 C 857.1964912000001 271.50467879999997 783.7897734000001 386.85819489999994 653.1640829 412.0545876 C 650.5283383000001 412.5629964 648.5621392 414.7801669 648.3323669 417.4546451 L 648.3323658 417.4546574 Z" stroke-linecap="round" />
</g>
		<g transform="matrix(0.27445619368318463 0 0 0.27445619368318463 -44.94842191320879 -28.66697494090633)"  >
<radialGradient id="SVGID_62_53692" gradientUnits="userSpaceOnUse" gradientTransform="matrix(-0.9336047188602016 0.35830465936401656 0.35830465936401656 0.9336047188602016 -12163.3985046 2254.3929829)"  cx="-12435.5870987" cy="2667.3919177" r="91.3822812" fx="-12435.5870987" fy="2667.3919177">
<stop offset="0%" style="stop-color:rgb(46,207,255);stop-opacity: 1"/>
<stop offset="100%" style="stop-color:rgb(8,34,52);stop-opacity: 1"/>
</radialGradient>
<path style="stroke: none; stroke-width: 0; stroke-dasharray: none; stroke-linecap: butt; stroke-dashoffset: 0; stroke-linejoin: miter; stroke-miterlimit: 4; fill: url(#SVGID_62_53692); fill-rule: nonzero; opacity: 1;"  paint-order="stroke"  transform=" translate(-401.38082563269097, -285.54990705002007)" d="M 525.7505162 311.7702779 C 528.8181491 309.188042 528.567802 304.39704439999997 525.2454562 302.1519759 C 501.9298218 286.3964828 415.52057920000004 237.62625480000003 274.8590573 267.28325800000005 C 274.8590573 267.28325800000005 408.33269870000004 237.62239250000005 518.5155504 312.17216390000004 C 520.7388026000001 313.67641750000007 523.6968916000001 313.49895390000006 525.7505069 311.77028580000007 L 525.7505163 311.77027790000005 Z" stroke-linecap="round" />
</g>
		<g transform="matrix(0.27445619368318463 0 0 0.27445619368318463 44.94842191320885 28.666974940906357)"  >
<radialGradient id="SVGID_63_53693" gradientUnits="userSpaceOnUse" gradientTransform="matrix(0.9336047188602017 -0.3583046593640163 -0.3583046593640163 -0.9336047188602017 1903.1159009 11504.4572692)"  cx="2849.1036015" cy="10703.2064438" r="91.3822812" fx="2849.1036015" fy="10703.2064438">
<stop offset="0%" style="stop-color:rgb(46,207,255);stop-opacity: 1"/>
<stop offset="100%" style="stop-color:rgb(8,34,52);stop-opacity: 1"/>
</radialGradient>
<path style="stroke: none; stroke-width: 0; stroke-dasharray: none; stroke-linecap: butt; stroke-dashoffset: 0; stroke-linejoin: miter; stroke-miterlimit: 4; fill: url(#SVGID_63_53693); fill-rule: nonzero; opacity: 1;"  paint-order="stroke"  transform=" translate(-728.9261530673091, -494.45009294997993)" d="M 604.5564625 468.2297221 C 601.4888295999999 470.811958 601.7391766999999 475.60295560000003 605.0615224999999 477.8480241 C 628.3771568999999 493.6035172 714.7863994999999 542.3737452 855.4479213999999 512.716742 C 855.4479213999999 512.716742 721.9742799999999 542.3776075 611.7914282999999 467.82783609999996 C 609.5681760999998 466.32358249999993 606.6100870999999 466.50104609999994 604.5564717999999 468.22971419999993 L 604.5564624 468.22972209999995 Z" stroke-linecap="round" />
</g>
		<g transform="matrix(0.27445619368318463 0 0 0.27445619368318463 -28.666974927183503 44.94842189948605)"  >
<radialGradient id="SVGID_64_53694" gradientUnits="userSpaceOnUse" gradientTransform="matrix(0.3583046593640163 0.9336047188602017 0.9336047188602017 -0.3583046593640163 -9706.4068187 14120.807013)"  cx="-9022.9285084" cy="14356.6878225" r="91.3822812" fx="-9022.9285084" fy="14356.6878225">
<stop offset="0%" style="stop-color:rgb(46,207,255);stop-opacity: 1"/>
<stop offset="100%" style="stop-color:rgb(8,34,52);stop-opacity: 1"/>
</radialGradient>
<path style="stroke: none; stroke-width: 0; stroke-dasharray: none; stroke-linecap: butt; stroke-dashoffset: 0; stroke-linejoin: miter; stroke-miterlimit: 4; fill: url(#SVGID_64_53694); fill-rule: nonzero; opacity: 1;"  paint-order="stroke"  transform=" translate(-460.70339645002014, -553.7726636673091)" d="M 486.9237673 429.4029731 C 484.3415314 426.3353402 479.5505338 426.5856873 477.30546530000004 429.9080331 C 461.5499722 453.22366750000003 412.77974420000004 539.6329101 442.43674740000006 680.294432 C 442.43674740000006 680.294432 412.77588190000006 546.8207906 487.32565330000006 436.6379389 C 488.8299069000001 434.4146867 488.6524433000001 431.4565977 486.9237752000001 429.4029824 L 486.92376730000007 429.402973 Z" stroke-linecap="round" />
</g>
		<g transform="matrix(0.27445619368318463 0 0 0.27445619368318463 28.66697492718356 -44.94842189948602)"  >
<radialGradient id="SVGID_65_53695" gradientUnits="userSpaceOnUse" gradientTransform="matrix(-0.3583046593640164 -0.9336047188602017 -0.9336047188602017 0.3583046593640164 -456.3425324 54.2926075)"  cx="-563.5549889" cy="-986.0894609" r="91.3822812" fx="-563.5549889" fy="-986.0894609">
<stop offset="0%" style="stop-color:rgb(46,207,255);stop-opacity: 1"/>
<stop offset="100%" style="stop-color:rgb(8,34,52);stop-opacity: 1"/>
</radialGradient>
<path style="stroke: none; stroke-width: 0; stroke-dasharray: none; stroke-linecap: butt; stroke-dashoffset: 0; stroke-linejoin: miter; stroke-miterlimit: 4; fill: url(#SVGID_65_53695); fill-rule: nonzero; opacity: 1;"  paint-order="stroke"  transform=" translate(-669.60358224998, -226.22733633269092)" d="M 643.3832114 350.5970269 C 645.9654473 353.6646598 650.7564449 353.4143127 653.0015134 350.0919669 C 668.7570065 326.77633249999997 717.5272345000001 240.3670899 687.8702313 99.705568 C 687.8702313 99.705568 717.5310968 233.1792094 642.9813254000001 343.3620611 C 641.4770718000001 345.5853133 641.6545354000001 348.5434023 643.3832035 350.5970176 L 643.3832114 350.597027 Z" stroke-linecap="round" />
</g>
</g>
</g>
<g transform="matrix(1.9211538461538462 0 0 1.9211538461538462 639.1835096153847 642.6450040316454)" id="text-logo"  >
<g style=""  paint-order="stroke"   >
		<g transform="matrix(1 0 0 1 0 0)" id="text-logo-path-0"  >
</g>
</g>
</g>
<g transform="matrix(1.9211538461538462 0 0 1.9211538461538462 640.2852913461537 430.5522207302518)" id="tagline-2fb1bff1-13f2-4d00-b029-5a4947a0346a-logo"  >
<g style=""  paint-order="stroke"   >
		<g transform="matrix(1 0 0 1 0 0)" id="tagline-2fb1bff1-13f2-4d00-b029-5a4947a0346a-logo-path-0"  >
</g>
</g>
</g>
<g fill="#2ECFFF"><path d="M628.4 425.8Q628.4 419.3 626.8 414.15Q625.2 409.0 622.35 405.4Q619.5 401.8 615.45 399.85Q611.4 397.9 606.6 397.9Q601.5 397.9 597.45 400.35Q593.4 402.8 590.5999999999999 407.0Q587.8 411.2 586.3499999999999 416.85Q584.9 422.5 584.9 428.9Q584.9 436.9 586.5999999999999 442.4Q588.3 447.9 591.2 451.25Q594.1 454.6 597.9000000000001 456.1Q601.7 457.6 605.9 457.6Q610.4 457.6 614.5 455.70000000000005Q618.6 453.8 621.6500000000001 449.9Q624.7 446.0 626.55 440.0Q628.4 434.0 628.4 425.8ZM606.9 392.2Q614.9 392.2 621.8 394.4Q628.7 396.6 633.8 401.0Q638.9 405.4 641.8499999999999 412.15Q644.8 418.9 644.8 427.9Q644.8 433.8 643.05 439.1Q641.3 444.4 638.0 448.79999999999995Q634.7 453.2 630.0 456.54999999999995Q625.3 459.9 619.3 462.0Q623.0 464.0 626.7 466.25Q630.4 468.5 633.8 470.55Q637.2 472.6 640.2 474.3Q643.2 476.0 645.5 477.1Q642.0 477.6 638.7 479.0Q635.4 480.4 631.4 482.5Q628.0 479.8 625.3 477.75Q622.6 475.7 619.8 473.6Q617.0 471.5 613.6 469.15Q610.2 466.8 605.3 463.5Q598.0 463.5 591.3 461.5Q584.6 459.5 579.55 455.15Q574.5 450.8 571.5 444.05Q568.5 437.3 568.5 428.0Q568.5 420.6 571.25 414.1Q574.0 407.6 579.0 402.70000000000005Q584.0 397.8 591.1 395.0Q598.2 392.2 606.9 392.2Z"/><path d="M711.3 450.9Q710.5 453.0 709.9 455.15Q709.3 457.3 709.0999999999999 459.4Q701.0 463.5 688.6999999999999 463.5Q680.0 463.5 673.15 461.05Q666.3 458.6 661.55 454.15Q656.8 449.7 654.3 443.6Q651.8 437.5 651.8 430.4Q651.8 420.0 655.05 412.75Q658.3 405.5 663.75 400.95Q669.1999999999999 396.4 676.3999999999999 394.29999999999995Q683.5999999999999 392.2 691.5 392.2Q694.0999999999999 392.2 697.0 392.6Q699.9 393.0 702.5999999999999 393.65Q705.3 394.3 707.75 395.20000000000005Q710.1999999999999 396.1 711.9 397.1Q710.9 399.6 710.3499999999999 402.15Q709.8 404.7 709.5999999999999 407.3H708.1999999999999Q704.4 402.5 700.4 400.45Q696.4 398.4 691.0 398.4Q687.0 398.4 682.95 400.2Q678.9 402.0 675.5999999999999 405.7Q672.3 409.4 670.25 415.15Q668.1999999999999 420.9 668.1999999999999 428.9Q668.1999999999999 436.6 670.3 442.05Q672.4 447.5 675.75 450.95Q679.0999999999999 454.4 683.3499999999999 456.0Q687.5999999999999 457.6 691.9 457.6Q694.3 457.6 696.8 457.05Q699.3 456.5 701.6999999999999 455.55Q704.0999999999999 454.6 706.25 453.20000000000005Q708.4 451.8 710.0 450.1L711.3 450.9Z"/></g>
</svg>